<?xml version="1.0" encoding="utf-8" ?>
<svg baseProfile="full" height="5001px" version="1.1" width="5001px" xmlns="http://www.w3.org/2000/svg" xmlns:ev="http://www.w3.org/2001/xml-events" xmlns:xlink="http://www.w3.org/1999/xlink"><defs /><rect fill="#ff0000" height="100%" width="100%" x="0" y="0" /><polygon clip-path="url(#border_clip)" fill="#008000" fill-rule="evenodd" points="2501.5,2501.5 2501.5,2501.5 2501.5,2001.5 3001.5,2001.5 3001.5,2501.5 2501.5,2501.5" stroke-width="0" /><polygon clip-path="url(#border_clip)" fill="#008000" fill-rule="evenodd" points="2501.5,2501.5 1.5,3751.5 1.4999999999990905,-1248.5 501.4999999999991,-1248.5 501.5000000000007,3751.5 1.5000000000009095,3751.5" stroke-width="0" /><polyline clip-path="url(#border_clip)" fill="none" points="420.15267138483887,984.2090915285207 446.37252883659903,993.7523391876643 473.6653798079858,999.5536137483148 501.4999999999991,1001.5000000000007" stroke="black" stroke-linecap="round" stroke-width="10" /><polyline clip-path="url(#border_clip)" fill="none" points="2501.5,2501.5 2501.5,2501.5 2501.5,2001.5 3001.5,2001.5 3001.5,2501.5 2501.5,2501.5" stroke="black" stroke-linecap="round" stroke-width="0" /><polyline clip-path="url(#border_clip)" fill="none" points="2501.5,2501.5 1.5,3751.5 1.4999999999990905,-1248.5 501.4999999999991,-1248.5 501.5000000000007,3751.5 1.5000000000009095,3751.5" stroke="black" stroke-linecap="round" stroke-width="0" /><polyline clip-path="url(#border_clip)" fill="none" points="501.5,3501.5 3001.5,3501.4999999999986" stroke="black" stroke-linecap="round" stroke-width="10" /><polyline clip-path="url(#border_clip)" fill="none" points="501.5,3001.5 3001.5,3001.4999999999986" stroke="black" stroke-linecap="round" stroke-width="10" /><polyline clip-path="url(#border_clip)" fill="none" points="501.5,2501.5 1001.5,2501.4999999999995" stroke="black" stroke-linecap="round" stroke-width="10" /><polyline clip-path="url(#border_clip)" fill="none" points="501.5,2001.5 523.7520933956314,1998.9927912181824 544.8883739117557,1991.5968867902418 563.8489801858732,1979.6831482468028 579.6831482468028,1963.8489801858732 591.5968867902418,1944.8883739117557 598.9927912181822,1923.7520933956312 601.4999999999998,1901.4999999999998 598.9927912181822,1879.2479066043684 591.5968867902418,1858.1116260882438 579.6831482468028,1839.1510198141264 563.8489801858732,1823.3168517531967 544.8883739117557,1811.4031132097575 523.7520933956314,1804.007208781817 501.5,1801.4999999999995 479.2479066043686,1804.007208781817 458.1116260882443,1811.4031132097575 439.1510198141268,1823.3168517531967 423.31685175319717,1839.1510198141264 411.40311320975843,1858.1116260882438 404.007208781818,1879.2479066043684 401.50000000000045,1901.4999999999998 404.007208781818,1923.7520933956312 411.40311320975843,1944.8883739117557 423.31685175319717,1963.8489801858732 439.1510198141268,1979.6831482468028 458.1116260882443,1991.596886790242 479.2479066043686,1998.9927912181824 501.5,2001.5" stroke="black" stroke-linecap="round" stroke-width="10" /><polyline clip-path="url(#border_clip)" fill="none" points="501.5,1501.5 526.8501230482773,1499.3423865521563 551.4709692113086,1492.9316168191626 574.6542415720451,1482.4521169741784 595.7329995943462,1468.2053631477659 614.1008457879086,1450.6012085085122 629.2293706599967,1430.1460925335846 640.6833540944765,1407.428471667046 648.1332858421531,1383.1018904993587 651.3648449307025,1357.866180479422 650.2850652888319,1332.4473270379679 644.9250102108881,1307.576584308517 635.4388787224357,1283.9694382773487 622.0995695550414,1262.3050235543567 605.2908303466322,1243.206585906821 585.4962179206395,1227.2235526134232 563.2851872365991,1214.8157264417791 539.296709207769,1206.3400579599747 514.2208886713265,1202.0403767186206 488.7791113286737,1202.0403767186206 463.7032907922312,1206.3400579599747 439.7148127634009,1214.8157264417791 417.50378207936046,1227.2235526134232 397.709169653368,1243.206585906821 380.9004304449586,1262.3050235543567 367.5611212775643,1283.9694382773487 358.0749897891119,1307.576584308517 352.7149347111681,1332.4473270379679 351.6351550692975,1357.866180479422 354.8667141578467,1383.1018904993587 362.3166459055233,1407.428471667046 373.77062934000287,1430.1460925335846 388.8991542120907,1450.6012085085122 407.2670004056531,1468.2053631477659 428.3457584279545,1482.4521169741784 451.5290307886912,1492.9316168191626 476.1498769517225,1499.3423865521563 501.5,1501.5" stroke="black" stroke-linecap="round" stroke-width="10" /><polyline clip-path="url(#border_clip)" fill="none" points="501.5,1001.5 529.3346201920131,999.5536137483141 556.6274711633998,993.7523391876639 582.84732861516,984.2090915285203 607.483852846641,971.1096192312853 630.0575219373079,954.7088886237957 650.1289650954789,935.3261212717716 667.3075145110083,913.3385806941494 681.2588092598335,889.1742293578154 691.7113032590307,863.3033988749894 698.4615506024415,836.229635533386 701.3781654038191,808.4798993405002 700.4043790736546,780.5943073464693 695.5591452551992,753.1156208800664 686.9367709133573,726.5786813168174 674.7050807568876,701.4999999999998 659.1021507213443,678.367704934868 640.4316740917993,657.6320399322694 619.0570504584944,639.6966011250101 595.394312557178,624.9104814282141 569.9040286651334,613.5614758428178 543.0823381635514,605.8704798532383 515.4512947488245,601.9871899480345 487.54870525117417,601.9871899480345 459.9176618364472,605.8704798532383 433.0959713348652,613.5614758428178 407.6056874428209,624.9104814282141 383.9429495415043,639.6966011250099 362.5683259081993,657.6320399322692 343.8978492786541,678.3677049348678 328.2949192431106,701.4999999999995 316.0632290866406,726.5786813168172 307.4408547447988,753.1156208800662 302.5956209263436,780.5943073464691 301.62183459617927,808.4798993405002 304.53844939755663,836.229635533386 311.2886967409677,863.3033988749896 321.74119074016517,889.1742293578156 335.6924854889903,913.3385806941496 352.87103490452,935.3261212717721 372.94247806269095,954.7088886237962 395.5161471533579,971.1096192312857 420.15267138483887,984.2090915285207" stroke="black" stroke-linecap="round" stroke-width="10" /></svg>