<?xml version="1.0" encoding="utf-8" standalone="no"?>
<!DOCTYPE svg PUBLIC "-//W3C//DTD SVG 1.1//EN"
  "http://www.w3.org/Graphics/SVG/1.1/DTD/svg11.dtd">
<svg xmlns:xlink="http://www.w3.org/1999/xlink" width="610.924219pt" height="368.105625pt" viewBox="0 0 610.924219 368.105625" xmlns="http://www.w3.org/2000/svg" version="1.1">
 <metadata>
  <rdf:RDF xmlns:dc="http://purl.org/dc/elements/1.1/" xmlns:cc="http://creativecommons.org/ns#" xmlns:rdf="http://www.w3.org/1999/02/22-rdf-syntax-ns#">
   <cc:Work>
    <dc:type rdf:resource="http://purl.org/dc/dcmitype/StillImage"/>
    <dc:date>2024-09-14T19:16:32.006181</dc:date>
    <dc:format>image/svg+xml</dc:format>
    <dc:creator>
     <cc:Agent>
      <dc:title>Matplotlib v3.9.0, https://matplotlib.org/</dc:title>
     </cc:Agent>
    </dc:creator>
   </cc:Work>
  </rdf:RDF>
 </metadata>
 <defs>
  <style type="text/css">*{stroke-linejoin: round; stroke-linecap: butt}</style>
 </defs>
 <g id="figure_1">
  <g id="patch_1">
   <path d="M 0 368.105625 
L 610.924219 368.105625 
L 610.924219 0 
L 0 0 
z
" style="fill: #ffffff"/>
  </g>
  <g id="axes_1">
   <g id="patch_2">
    <path d="M 44.582813 332.64 
L 602.582813 332.64 
L 602.582813 0 
L 44.582813 0 
z
" style="fill: #ffffff"/>
   </g>
   <g id="matplotlib.axis_1">
    <g id="xtick_1">
     <g id="line2d_1">
      <path d="M 44.582813 332.64 
L 44.582813 0 
" clip-path="url(#p22baf3c51a)" style="fill: none; stroke: #cccccc; stroke-width: 0.8; stroke-linecap: round"/>
     </g>
     <g id="line2d_2"/>
     <g id="text_1">
      <!-- 0 -->
      <g style="fill: #262626" transform="translate(40.412109 347.010313) scale(0.15 -0.15)">
       <defs>
        <path id="LiberationSans-30" d="M 3309 2203 
Q 3309 1569 3189 1136 
Q 3069 703 2861 436 
Q 2653 169 2372 53 
Q 2091 -63 1772 -63 
Q 1450 -63 1172 53 
Q 894 169 689 434 
Q 484 700 367 1133 
Q 250 1566 250 2203 
Q 250 2869 367 3305 
Q 484 3741 690 4000 
Q 897 4259 1178 4364 
Q 1459 4469 1791 4469 
Q 2106 4469 2382 4364 
Q 2659 4259 2865 4000 
Q 3072 3741 3190 3305 
Q 3309 2869 3309 2203 
z
M 2738 2203 
Q 2738 2728 2675 3076 
Q 2613 3425 2491 3633 
Q 2369 3841 2192 3927 
Q 2016 4013 1791 4013 
Q 1553 4013 1372 3925 
Q 1191 3838 1067 3630 
Q 944 3422 881 3073 
Q 819 2725 819 2203 
Q 819 1697 883 1350 
Q 947 1003 1070 792 
Q 1194 581 1372 489 
Q 1550 397 1778 397 
Q 2000 397 2178 489 
Q 2356 581 2479 792 
Q 2603 1003 2670 1350 
Q 2738 1697 2738 2203 
z
" transform="scale(0.015625)"/>
       </defs>
       <use xlink:href="#LiberationSans-30"/>
      </g>
     </g>
    </g>
    <g id="xtick_2">
     <g id="line2d_3">
      <path d="M 114.332813 332.64 
L 114.332813 0 
" clip-path="url(#p22baf3c51a)" style="fill: none; stroke: #cccccc; stroke-width: 0.8; stroke-linecap: round"/>
     </g>
     <g id="line2d_4"/>
     <g id="text_2">
      <!-- 5 -->
      <g style="fill: #262626" transform="translate(110.162109 347.010313) scale(0.15 -0.15)">
       <defs>
        <path id="LiberationSans-35" d="M 3291 1434 
Q 3291 1103 3191 828 
Q 3091 553 2894 354 
Q 2697 156 2405 46 
Q 2113 -63 1728 -63 
Q 1381 -63 1123 18 
Q 866 100 687 242 
Q 509 384 404 575 
Q 300 766 256 984 
L 825 1050 
Q 859 925 921 808 
Q 984 691 1092 598 
Q 1200 506 1358 451 
Q 1516 397 1741 397 
Q 1959 397 2137 464 
Q 2316 531 2442 662 
Q 2569 794 2637 984 
Q 2706 1175 2706 1422 
Q 2706 1625 2640 1795 
Q 2575 1966 2453 2089 
Q 2331 2213 2154 2281 
Q 1978 2350 1753 2350 
Q 1613 2350 1494 2325 
Q 1375 2300 1273 2256 
Q 1172 2213 1089 2155 
Q 1006 2097 934 2034 
L 384 2034 
L 531 4403 
L 3034 4403 
L 3034 3925 
L 1044 3925 
L 959 2528 
Q 1109 2644 1334 2726 
Q 1559 2809 1869 2809 
Q 2197 2809 2459 2709 
Q 2722 2609 2906 2426 
Q 3091 2244 3191 1991 
Q 3291 1738 3291 1434 
z
" transform="scale(0.015625)"/>
       </defs>
       <use xlink:href="#LiberationSans-35"/>
      </g>
     </g>
    </g>
    <g id="xtick_3">
     <g id="line2d_5">
      <path d="M 184.082812 332.64 
L 184.082812 0 
" clip-path="url(#p22baf3c51a)" style="fill: none; stroke: #cccccc; stroke-width: 0.8; stroke-linecap: round"/>
     </g>
     <g id="line2d_6"/>
     <g id="text_3">
      <!-- 10 -->
      <g style="fill: #262626" transform="translate(175.741406 347.010313) scale(0.15 -0.15)">
       <defs>
        <path id="LiberationSans-31" d="M 488 0 
L 488 478 
L 1609 478 
L 1609 3866 
L 616 3156 
L 616 3688 
L 1656 4403 
L 2175 4403 
L 2175 478 
L 3247 478 
L 3247 0 
L 488 0 
z
" transform="scale(0.015625)"/>
       </defs>
       <use xlink:href="#LiberationSans-31"/>
       <use xlink:href="#LiberationSans-30" x="55.615234"/>
      </g>
     </g>
    </g>
    <g id="xtick_4">
     <g id="line2d_7">
      <path d="M 253.832813 332.64 
L 253.832813 0 
" clip-path="url(#p22baf3c51a)" style="fill: none; stroke: #cccccc; stroke-width: 0.8; stroke-linecap: round"/>
     </g>
     <g id="line2d_8"/>
     <g id="text_4">
      <!-- 15 -->
      <g style="fill: #262626" transform="translate(245.491406 347.010313) scale(0.15 -0.15)">
       <use xlink:href="#LiberationSans-31"/>
       <use xlink:href="#LiberationSans-35" x="55.615234"/>
      </g>
     </g>
    </g>
    <g id="xtick_5">
     <g id="line2d_9">
      <path d="M 323.582812 332.64 
L 323.582812 0 
" clip-path="url(#p22baf3c51a)" style="fill: none; stroke: #cccccc; stroke-width: 0.8; stroke-linecap: round"/>
     </g>
     <g id="line2d_10"/>
     <g id="text_5">
      <!-- 20 -->
      <g style="fill: #262626" transform="translate(315.241406 347.010313) scale(0.15 -0.15)">
       <defs>
        <path id="LiberationSans-32" d="M 322 0 
L 322 397 
Q 481 763 711 1042 
Q 941 1322 1194 1548 
Q 1447 1775 1695 1969 
Q 1944 2163 2144 2356 
Q 2344 2550 2467 2762 
Q 2591 2975 2591 3244 
Q 2591 3431 2534 3573 
Q 2478 3716 2372 3812 
Q 2266 3909 2117 3957 
Q 1969 4006 1788 4006 
Q 1619 4006 1470 3959 
Q 1322 3913 1206 3819 
Q 1091 3725 1017 3586 
Q 944 3447 922 3263 
L 347 3316 
Q 375 3553 478 3762 
Q 581 3972 762 4130 
Q 944 4288 1198 4378 
Q 1453 4469 1788 4469 
Q 2116 4469 2372 4391 
Q 2628 4313 2804 4159 
Q 2981 4006 3075 3781 
Q 3169 3556 3169 3263 
Q 3169 3041 3089 2841 
Q 3009 2641 2876 2459 
Q 2744 2278 2569 2109 
Q 2394 1941 2203 1780 
Q 2013 1619 1819 1461 
Q 1625 1303 1454 1143 
Q 1284 984 1150 820 
Q 1016 656 941 478 
L 3238 478 
L 3238 0 
L 322 0 
z
" transform="scale(0.015625)"/>
       </defs>
       <use xlink:href="#LiberationSans-32"/>
       <use xlink:href="#LiberationSans-30" x="55.615234"/>
      </g>
     </g>
    </g>
    <g id="xtick_6">
     <g id="line2d_11">
      <path d="M 393.332812 332.64 
L 393.332812 0 
" clip-path="url(#p22baf3c51a)" style="fill: none; stroke: #cccccc; stroke-width: 0.8; stroke-linecap: round"/>
     </g>
     <g id="line2d_12"/>
     <g id="text_6">
      <!-- 25 -->
      <g style="fill: #262626" transform="translate(384.991406 347.010313) scale(0.15 -0.15)">
       <use xlink:href="#LiberationSans-32"/>
       <use xlink:href="#LiberationSans-35" x="55.615234"/>
      </g>
     </g>
    </g>
    <g id="xtick_7">
     <g id="line2d_13">
      <path d="M 463.082813 332.64 
L 463.082813 0 
" clip-path="url(#p22baf3c51a)" style="fill: none; stroke: #cccccc; stroke-width: 0.8; stroke-linecap: round"/>
     </g>
     <g id="line2d_14"/>
     <g id="text_7">
      <!-- 30 -->
      <g style="fill: #262626" transform="translate(454.741406 347.010313) scale(0.15 -0.15)">
       <defs>
        <path id="LiberationSans-33" d="M 3278 1216 
Q 3278 913 3179 675 
Q 3081 438 2892 273 
Q 2703 109 2423 23 
Q 2144 -63 1784 -63 
Q 1375 -63 1095 39 
Q 816 141 634 308 
Q 453 475 362 689 
Q 272 903 244 1131 
L 825 1184 
Q 850 1009 917 865 
Q 984 722 1100 619 
Q 1216 516 1384 459 
Q 1553 403 1784 403 
Q 2209 403 2451 612 
Q 2694 822 2694 1234 
Q 2694 1478 2586 1626 
Q 2478 1775 2317 1858 
Q 2156 1941 1967 1969 
Q 1778 1997 1619 1997 
L 1300 1997 
L 1300 2484 
L 1606 2484 
Q 1766 2484 1937 2517 
Q 2109 2550 2251 2636 
Q 2394 2722 2486 2869 
Q 2578 3016 2578 3244 
Q 2578 3597 2370 3801 
Q 2163 4006 1753 4006 
Q 1381 4006 1151 3815 
Q 922 3625 884 3278 
L 319 3322 
Q 353 3613 478 3828 
Q 603 4044 795 4186 
Q 988 4328 1234 4398 
Q 1481 4469 1759 4469 
Q 2128 4469 2393 4376 
Q 2659 4284 2828 4126 
Q 2997 3969 3076 3756 
Q 3156 3544 3156 3303 
Q 3156 3109 3103 2940 
Q 3050 2772 2937 2637 
Q 2825 2503 2651 2406 
Q 2478 2309 2234 2259 
L 2234 2247 
Q 2500 2219 2697 2126 
Q 2894 2034 3022 1896 
Q 3150 1759 3214 1584 
Q 3278 1409 3278 1216 
z
" transform="scale(0.015625)"/>
       </defs>
       <use xlink:href="#LiberationSans-33"/>
       <use xlink:href="#LiberationSans-30" x="55.615234"/>
      </g>
     </g>
    </g>
    <g id="xtick_8">
     <g id="line2d_15">
      <path d="M 532.832813 332.64 
L 532.832813 0 
" clip-path="url(#p22baf3c51a)" style="fill: none; stroke: #cccccc; stroke-width: 0.8; stroke-linecap: round"/>
     </g>
     <g id="line2d_16"/>
     <g id="text_8">
      <!-- 35 -->
      <g style="fill: #262626" transform="translate(524.491406 347.010313) scale(0.15 -0.15)">
       <use xlink:href="#LiberationSans-33"/>
       <use xlink:href="#LiberationSans-35" x="55.615234"/>
      </g>
     </g>
    </g>
    <g id="xtick_9">
     <g id="line2d_17">
      <path d="M 602.582813 332.64 
L 602.582813 0 
" clip-path="url(#p22baf3c51a)" style="fill: none; stroke: #cccccc; stroke-width: 0.8; stroke-linecap: round"/>
     </g>
     <g id="line2d_18"/>
     <g id="text_9">
      <!-- 40 -->
      <g style="fill: #262626" transform="translate(594.241406 347.010313) scale(0.15 -0.15)">
       <defs>
        <path id="LiberationSans-34" d="M 2753 997 
L 2753 0 
L 2222 0 
L 2222 997 
L 147 997 
L 147 1434 
L 2163 4403 
L 2753 4403 
L 2753 1441 
L 3372 1441 
L 3372 997 
L 2753 997 
z
M 2222 3769 
Q 2216 3753 2191 3708 
Q 2166 3663 2134 3606 
Q 2103 3550 2070 3492 
Q 2038 3434 2013 3397 
L 884 1734 
Q 869 1709 839 1668 
Q 809 1628 778 1586 
Q 747 1544 715 1503 
Q 684 1463 666 1441 
L 2222 1441 
L 2222 3769 
z
" transform="scale(0.015625)"/>
       </defs>
       <use xlink:href="#LiberationSans-34"/>
       <use xlink:href="#LiberationSans-30" x="55.615234"/>
      </g>
     </g>
    </g>
    <g id="text_10">
     <!-- Time [s] -->
     <g style="fill: #262626" transform="translate(297.198047 364.993125) scale(0.15 -0.15)">
      <defs>
       <path id="LiberationSans-54" d="M 2250 3916 
L 2250 0 
L 1656 0 
L 1656 3916 
L 144 3916 
L 144 4403 
L 3763 4403 
L 3763 3916 
L 2250 3916 
z
" transform="scale(0.015625)"/>
       <path id="LiberationSans-69" d="M 428 4100 
L 428 4638 
L 991 4638 
L 991 4100 
L 428 4100 
z
M 428 0 
L 428 3381 
L 991 3381 
L 991 0 
L 428 0 
z
" transform="scale(0.015625)"/>
       <path id="LiberationSans-6d" d="M 2400 0 
L 2400 2144 
Q 2400 2391 2369 2556 
Q 2338 2722 2264 2823 
Q 2191 2925 2072 2967 
Q 1953 3009 1781 3009 
Q 1603 3009 1459 2939 
Q 1316 2869 1214 2736 
Q 1113 2603 1058 2408 
Q 1003 2213 1003 1959 
L 1003 0 
L 444 0 
L 444 2659 
Q 444 2766 442 2883 
Q 441 3000 437 3104 
Q 434 3209 431 3284 
Q 428 3359 425 3381 
L 956 3381 
Q 959 3366 962 3297 
Q 966 3228 970 3139 
Q 975 3050 978 2958 
Q 981 2866 981 2803 
L 991 2803 
Q 1066 2950 1153 3069 
Q 1241 3188 1358 3270 
Q 1475 3353 1626 3398 
Q 1778 3444 1978 3444 
Q 2363 3444 2586 3291 
Q 2809 3138 2897 2803 
L 2906 2803 
Q 2981 2950 3075 3069 
Q 3169 3188 3294 3270 
Q 3419 3353 3575 3398 
Q 3731 3444 3931 3444 
Q 4188 3444 4373 3375 
Q 4559 3306 4678 3162 
Q 4797 3019 4853 2792 
Q 4909 2566 4909 2253 
L 4909 0 
L 4353 0 
L 4353 2144 
Q 4353 2391 4322 2556 
Q 4291 2722 4217 2823 
Q 4144 2925 4025 2967 
Q 3906 3009 3734 3009 
Q 3556 3009 3412 2942 
Q 3269 2875 3167 2744 
Q 3066 2613 3011 2416 
Q 2956 2219 2956 1959 
L 2956 0 
L 2400 0 
z
" transform="scale(0.015625)"/>
       <path id="LiberationSans-65" d="M 863 1572 
Q 863 1306 917 1082 
Q 972 859 1086 698 
Q 1200 538 1378 448 
Q 1556 359 1806 359 
Q 2172 359 2392 506 
Q 2613 653 2691 878 
L 3184 738 
Q 3131 597 3036 455 
Q 2941 313 2781 198 
Q 2622 84 2383 10 
Q 2144 -63 1806 -63 
Q 1056 -63 664 384 
Q 272 831 272 1713 
Q 272 2188 390 2517 
Q 509 2847 715 3053 
Q 922 3259 1197 3351 
Q 1472 3444 1784 3444 
Q 2209 3444 2495 3306 
Q 2781 3169 2954 2926 
Q 3128 2684 3201 2356 
Q 3275 2028 3275 1647 
L 3275 1572 
L 863 1572 
z
M 2694 2003 
Q 2647 2538 2422 2783 
Q 2197 3028 1775 3028 
Q 1634 3028 1479 2983 
Q 1325 2938 1194 2822 
Q 1063 2706 972 2507 
Q 881 2309 869 2003 
L 2694 2003 
z
" transform="scale(0.015625)"/>
       <path id="LiberationSans-20" transform="scale(0.015625)"/>
       <path id="LiberationSans-5b" d="M 456 -1328 
L 456 4638 
L 1728 4638 
L 1728 4234 
L 1000 4234 
L 1000 -925 
L 1728 -925 
L 1728 -1328 
L 456 -1328 
z
" transform="scale(0.015625)"/>
       <path id="LiberationSans-73" d="M 2969 934 
Q 2969 697 2876 511 
Q 2784 325 2609 198 
Q 2434 72 2179 4 
Q 1925 -63 1597 -63 
Q 1303 -63 1067 -17 
Q 831 28 653 128 
Q 475 228 354 392 
Q 234 556 178 794 
L 675 891 
Q 747 619 972 492 
Q 1197 366 1597 366 
Q 1778 366 1929 391 
Q 2081 416 2190 477 
Q 2300 538 2361 639 
Q 2422 741 2422 891 
Q 2422 1044 2350 1142 
Q 2278 1241 2150 1306 
Q 2022 1372 1839 1420 
Q 1656 1469 1438 1528 
Q 1234 1581 1034 1647 
Q 834 1713 673 1820 
Q 513 1928 413 2087 
Q 313 2247 313 2488 
Q 313 2950 642 3192 
Q 972 3434 1603 3434 
Q 2163 3434 2492 3237 
Q 2822 3041 2909 2606 
L 2403 2544 
Q 2375 2675 2300 2764 
Q 2225 2853 2119 2908 
Q 2013 2963 1880 2986 
Q 1747 3009 1603 3009 
Q 1222 3009 1040 2893 
Q 859 2778 859 2544 
Q 859 2406 926 2317 
Q 994 2228 1114 2167 
Q 1234 2106 1403 2061 
Q 1572 2016 1775 1966 
Q 1909 1931 2050 1892 
Q 2191 1853 2323 1798 
Q 2456 1744 2573 1670 
Q 2691 1597 2778 1494 
Q 2866 1391 2917 1253 
Q 2969 1116 2969 934 
z
" transform="scale(0.015625)"/>
       <path id="LiberationSans-5d" d="M 50 -1328 
L 50 -925 
L 778 -925 
L 778 4234 
L 50 4234 
L 50 4638 
L 1322 4638 
L 1322 -1328 
L 50 -1328 
z
" transform="scale(0.015625)"/>
      </defs>
      <use xlink:href="#LiberationSans-54"/>
      <use xlink:href="#LiberationSans-69" x="57.333984"/>
      <use xlink:href="#LiberationSans-6d" x="79.550781"/>
      <use xlink:href="#LiberationSans-65" x="162.851562"/>
      <use xlink:href="#LiberationSans-20" x="218.466797"/>
      <use xlink:href="#LiberationSans-5b" x="246.25"/>
      <use xlink:href="#LiberationSans-73" x="274.033203"/>
      <use xlink:href="#LiberationSans-5d" x="324.033203"/>
     </g>
    </g>
   </g>
   <g id="matplotlib.axis_2">
    <g id="ytick_1">
     <g id="line2d_19">
      <path d="M 44.582813 251.54586 
L 602.582813 251.54586 
" clip-path="url(#p22baf3c51a)" style="fill: none; stroke: #cccccc; stroke-width: 0.8; stroke-linecap: round"/>
     </g>
     <g id="line2d_20"/>
     <g id="text_11">
      <!-- $\mathdefault{10^{2}}$ -->
      <g style="fill: #262626" transform="translate(17.982813 256.981016) scale(0.15 -0.15)">
       <use xlink:href="#LiberationSans-31" transform="translate(0 0.140625)"/>
       <use xlink:href="#LiberationSans-30" transform="translate(55.615234 0.140625)"/>
       <use xlink:href="#LiberationSans-32" transform="translate(112.154961 37.120312) scale(0.7)"/>
      </g>
     </g>
    </g>
    <g id="ytick_2">
     <g id="line2d_21">
      <path d="M 44.582813 156.932866 
L 602.582813 156.932866 
" clip-path="url(#p22baf3c51a)" style="fill: none; stroke: #cccccc; stroke-width: 0.8; stroke-linecap: round"/>
     </g>
     <g id="line2d_22"/>
     <g id="text_12">
      <!-- $\mathdefault{10^{3}}$ -->
      <g style="fill: #262626" transform="translate(17.982813 162.368023) scale(0.15 -0.15)">
       <use xlink:href="#LiberationSans-31" transform="translate(0 0.140625)"/>
       <use xlink:href="#LiberationSans-30" transform="translate(55.615234 0.140625)"/>
       <use xlink:href="#LiberationSans-33" transform="translate(112.154961 37.120312) scale(0.7)"/>
      </g>
     </g>
    </g>
    <g id="ytick_3">
     <g id="line2d_23">
      <path d="M 44.582813 62.319873 
L 602.582813 62.319873 
" clip-path="url(#p22baf3c51a)" style="fill: none; stroke: #cccccc; stroke-width: 0.8; stroke-linecap: round"/>
     </g>
     <g id="line2d_24"/>
     <g id="text_13">
      <!-- $\mathdefault{10^{4}}$ -->
      <g style="fill: #262626" transform="translate(17.982813 67.755029) scale(0.15 -0.15)">
       <use xlink:href="#LiberationSans-31" transform="translate(0 0.8625)"/>
       <use xlink:href="#LiberationSans-30" transform="translate(55.615234 0.8625)"/>
       <use xlink:href="#LiberationSans-34" transform="translate(112.154961 37.842188) scale(0.7)"/>
      </g>
     </g>
    </g>
    <g id="ytick_4">
     <g id="line2d_25"/>
    </g>
    <g id="ytick_5">
     <g id="line2d_26"/>
    </g>
    <g id="ytick_6">
     <g id="line2d_27"/>
    </g>
    <g id="ytick_7">
     <g id="line2d_28"/>
    </g>
    <g id="ytick_8">
     <g id="line2d_29"/>
    </g>
    <g id="ytick_9">
     <g id="line2d_30"/>
    </g>
    <g id="ytick_10">
     <g id="line2d_31"/>
    </g>
    <g id="ytick_11">
     <g id="line2d_32"/>
    </g>
    <g id="ytick_12">
     <g id="line2d_33"/>
    </g>
    <g id="ytick_13">
     <g id="line2d_34"/>
    </g>
    <g id="ytick_14">
     <g id="line2d_35"/>
    </g>
    <g id="ytick_15">
     <g id="line2d_36"/>
    </g>
    <g id="ytick_16">
     <g id="line2d_37"/>
    </g>
    <g id="ytick_17">
     <g id="line2d_38"/>
    </g>
    <g id="ytick_18">
     <g id="line2d_39"/>
    </g>
    <g id="ytick_19">
     <g id="line2d_40"/>
    </g>
    <g id="ytick_20">
     <g id="line2d_41"/>
    </g>
    <g id="ytick_21">
     <g id="line2d_42"/>
    </g>
    <g id="ytick_22">
     <g id="line2d_43"/>
    </g>
    <g id="ytick_23">
     <g id="line2d_44"/>
    </g>
    <g id="ytick_24">
     <g id="line2d_45"/>
    </g>
    <g id="ytick_25">
     <g id="line2d_46"/>
    </g>
    <g id="ytick_26">
     <g id="line2d_47"/>
    </g>
    <g id="ytick_27">
     <g id="line2d_48"/>
    </g>
    <g id="ytick_28">
     <g id="line2d_49"/>
    </g>
    <g id="ytick_29">
     <g id="line2d_50"/>
    </g>
    <g id="ytick_30">
     <g id="line2d_51"/>
    </g>
    <g id="text_14">
     <!-- Accumulated cost -->
     <g style="fill: #262626" transform="translate(10.870313 225.511406) rotate(-90) scale(0.15 -0.15)">
      <defs>
       <path id="LiberationSans-41" d="M 3647 0 
L 3144 1288 
L 1138 1288 
L 631 0 
L 13 0 
L 1809 4403 
L 2488 4403 
L 4256 0 
L 3647 0 
z
M 2400 3206 
Q 2350 3331 2304 3459 
Q 2259 3588 2225 3692 
Q 2191 3797 2167 3867 
Q 2144 3938 2141 3953 
Q 2134 3938 2112 3866 
Q 2091 3794 2055 3687 
Q 2019 3581 1973 3453 
Q 1928 3325 1881 3200 
L 1319 1753 
L 2966 1753 
L 2400 3206 
z
" transform="scale(0.015625)"/>
       <path id="LiberationSans-63" d="M 859 1706 
Q 859 1416 901 1172 
Q 944 928 1044 751 
Q 1144 575 1308 478 
Q 1472 381 1713 381 
Q 2013 381 2214 543 
Q 2416 706 2463 1044 
L 3031 1006 
Q 3003 797 2909 603 
Q 2816 409 2655 262 
Q 2494 116 2262 26 
Q 2031 -63 1728 -63 
Q 1331 -63 1053 71 
Q 775 206 601 442 
Q 428 678 350 998 
Q 272 1319 272 1694 
Q 272 2034 328 2295 
Q 384 2556 486 2751 
Q 588 2947 725 3080 
Q 863 3213 1023 3292 
Q 1184 3372 1362 3408 
Q 1541 3444 1722 3444 
Q 2006 3444 2228 3366 
Q 2450 3288 2611 3152 
Q 2772 3016 2872 2831 
Q 2972 2647 3013 2434 
L 2434 2391 
Q 2391 2672 2212 2837 
Q 2034 3003 1706 3003 
Q 1466 3003 1305 2923 
Q 1144 2844 1044 2683 
Q 944 2522 901 2278 
Q 859 2034 859 1706 
z
" transform="scale(0.015625)"/>
       <path id="LiberationSans-75" d="M 981 3381 
L 981 1238 
Q 981 991 1017 825 
Q 1053 659 1134 557 
Q 1216 456 1348 414 
Q 1481 372 1678 372 
Q 1878 372 2039 442 
Q 2200 513 2314 645 
Q 2428 778 2490 973 
Q 2553 1169 2553 1422 
L 2553 3381 
L 3116 3381 
L 3116 722 
Q 3116 616 3117 498 
Q 3119 381 3122 276 
Q 3125 172 3128 97 
Q 3131 22 3134 0 
L 2603 0 
Q 2600 16 2597 84 
Q 2594 153 2589 242 
Q 2584 331 2581 423 
Q 2578 516 2578 578 
L 2569 578 
Q 2488 431 2391 312 
Q 2294 194 2166 111 
Q 2038 28 1872 -17 
Q 1706 -63 1488 -63 
Q 1206 -63 1003 6 
Q 800 75 669 219 
Q 538 363 477 588 
Q 416 813 416 1128 
L 416 3381 
L 981 3381 
z
" transform="scale(0.015625)"/>
       <path id="LiberationSans-6c" d="M 431 0 
L 431 4638 
L 994 4638 
L 994 0 
L 431 0 
z
" transform="scale(0.015625)"/>
       <path id="LiberationSans-61" d="M 1294 -63 
Q 784 -63 528 206 
Q 272 475 272 944 
Q 272 1278 398 1492 
Q 525 1706 729 1828 
Q 934 1950 1196 1997 
Q 1459 2044 1731 2050 
L 2491 2063 
L 2491 2247 
Q 2491 2456 2447 2603 
Q 2403 2750 2312 2840 
Q 2222 2931 2086 2973 
Q 1950 3016 1766 3016 
Q 1603 3016 1472 2992 
Q 1341 2969 1244 2908 
Q 1147 2847 1087 2742 
Q 1028 2638 1009 2478 
L 422 2531 
Q 453 2731 540 2898 
Q 628 3066 789 3187 
Q 950 3309 1192 3376 
Q 1434 3444 1778 3444 
Q 2416 3444 2737 3151 
Q 3059 2859 3059 2306 
L 3059 850 
Q 3059 600 3125 473 
Q 3191 347 3375 347 
Q 3422 347 3469 353 
Q 3516 359 3559 369 
L 3559 19 
Q 3453 -6 3348 -18 
Q 3244 -31 3125 -31 
Q 2966 -31 2852 11 
Q 2738 53 2666 139 
Q 2594 225 2556 351 
Q 2519 478 2509 647 
L 2491 647 
Q 2400 484 2292 353 
Q 2184 222 2040 130 
Q 1897 38 1714 -12 
Q 1531 -63 1294 -63 
z
M 1422 359 
Q 1691 359 1892 457 
Q 2094 556 2226 709 
Q 2359 863 2425 1044 
Q 2491 1225 2491 1391 
L 2491 1669 
L 1875 1656 
Q 1669 1653 1483 1626 
Q 1297 1600 1156 1522 
Q 1016 1444 933 1303 
Q 850 1163 850 934 
Q 850 659 998 509 
Q 1147 359 1422 359 
z
" transform="scale(0.015625)"/>
       <path id="LiberationSans-74" d="M 1731 25 
Q 1603 -9 1470 -29 
Q 1338 -50 1163 -50 
Q 488 -50 488 716 
L 488 2972 
L 97 2972 
L 97 3381 
L 509 3381 
L 675 4138 
L 1050 4138 
L 1050 3381 
L 1675 3381 
L 1675 2972 
L 1050 2972 
L 1050 838 
Q 1050 594 1129 495 
Q 1209 397 1406 397 
Q 1488 397 1564 409 
Q 1641 422 1731 441 
L 1731 25 
z
" transform="scale(0.015625)"/>
       <path id="LiberationSans-64" d="M 2566 544 
Q 2409 219 2151 78 
Q 1894 -63 1513 -63 
Q 872 -63 570 368 
Q 269 800 269 1675 
Q 269 3444 1513 3444 
Q 1897 3444 2153 3303 
Q 2409 3163 2566 2856 
L 2572 2856 
Q 2572 2888 2570 2955 
Q 2569 3022 2567 3095 
Q 2566 3169 2566 3234 
Q 2566 3300 2566 3328 
L 2566 4638 
L 3128 4638 
L 3128 697 
Q 3128 575 3129 462 
Q 3131 350 3134 256 
Q 3138 163 3141 95 
Q 3144 28 3147 0 
L 2609 0 
Q 2603 31 2598 89 
Q 2594 147 2589 222 
Q 2584 297 2581 380 
Q 2578 463 2578 544 
L 2566 544 
z
M 859 1694 
Q 859 1344 903 1094 
Q 947 844 1044 683 
Q 1141 522 1291 447 
Q 1441 372 1656 372 
Q 1878 372 2048 444 
Q 2219 516 2333 677 
Q 2447 838 2506 1097 
Q 2566 1356 2566 1731 
Q 2566 2091 2506 2339 
Q 2447 2588 2331 2741 
Q 2216 2894 2048 2961 
Q 1881 3028 1663 3028 
Q 1456 3028 1306 2956 
Q 1156 2884 1056 2725 
Q 956 2566 907 2311 
Q 859 2056 859 1694 
z
" transform="scale(0.015625)"/>
       <path id="LiberationSans-6f" d="M 3291 1694 
Q 3291 806 2900 371 
Q 2509 -63 1766 -63 
Q 1413 -63 1134 43 
Q 856 150 664 369 
Q 472 588 370 917 
Q 269 1247 269 1694 
Q 269 3444 1784 3444 
Q 2178 3444 2464 3334 
Q 2750 3225 2933 3006 
Q 3116 2788 3203 2459 
Q 3291 2131 3291 1694 
z
M 2700 1694 
Q 2700 2088 2639 2344 
Q 2578 2600 2461 2753 
Q 2344 2906 2175 2967 
Q 2006 3028 1794 3028 
Q 1578 3028 1404 2964 
Q 1231 2900 1109 2745 
Q 988 2591 923 2334 
Q 859 2078 859 1694 
Q 859 1300 928 1042 
Q 997 784 1117 631 
Q 1238 478 1402 415 
Q 1566 353 1759 353 
Q 1975 353 2150 414 
Q 2325 475 2447 628 
Q 2569 781 2634 1040 
Q 2700 1300 2700 1694 
z
" transform="scale(0.015625)"/>
      </defs>
      <use xlink:href="#LiberationSans-41"/>
      <use xlink:href="#LiberationSans-63" x="66.699219"/>
      <use xlink:href="#LiberationSans-63" x="116.699219"/>
      <use xlink:href="#LiberationSans-75" x="166.699219"/>
      <use xlink:href="#LiberationSans-6d" x="222.314453"/>
      <use xlink:href="#LiberationSans-75" x="305.615234"/>
      <use xlink:href="#LiberationSans-6c" x="361.230469"/>
      <use xlink:href="#LiberationSans-61" x="383.447266"/>
      <use xlink:href="#LiberationSans-74" x="439.0625"/>
      <use xlink:href="#LiberationSans-65" x="466.845703"/>
      <use xlink:href="#LiberationSans-64" x="522.460938"/>
      <use xlink:href="#LiberationSans-20" x="578.076172"/>
      <use xlink:href="#LiberationSans-63" x="605.859375"/>
      <use xlink:href="#LiberationSans-6f" x="655.859375"/>
      <use xlink:href="#LiberationSans-73" x="711.474609"/>
      <use xlink:href="#LiberationSans-74" x="761.474609"/>
     </g>
    </g>
   </g>
   <g id="PolyCollection_1">
    <path d="M 44.582813 317.52 
L 44.582813 223.153685 
L 61.394351 191.190489 
L 78.205889 173.586395 
L 95.017428 161.818333 
L 111.828966 152.495528 
L 128.640505 144.655642 
L 145.452043 138.082621 
L 162.263582 132.561713 
L 179.07512 127.054859 
L 195.886659 121.232948 
L 212.698197 115.003445 
L 229.509736 109.435878 
L 246.321274 104.542816 
L 263.132812 100.210005 
L 279.944351 96.32294 
L 296.755889 93.093758 
L 313.567428 90.065286 
L 330.378966 87.439842 
L 347.190505 84.993774 
L 364.002043 81.885133 
L 380.813582 78.484193 
L 397.62512 75.832356 
L 414.436659 71.800221 
L 431.248197 67.172865 
L 448.059736 63.038716 
L 464.871274 60.934959 
L 481.682813 57.011761 
L 498.494351 52.783765 
L 515.305889 50.118175 
L 532.117428 46.861891 
L 548.928966 42.233055 
L 565.740505 39.075683 
L 582.552043 36.963301 
L 599.363582 33.084087 
L 616.17512 28.291878 
L 632.986659 26.375879 
L 649.798197 26.414031 
L 666.609736 20.013101 
L 683.421274 16.049011 
L 700.232813 15.12 
L 700.232813 96.090714 
L 700.232813 96.090714 
L 683.421274 96.191468 
L 666.609736 96.276538 
L 649.798197 96.351721 
L 632.986659 96.524277 
L 616.17512 96.606065 
L 599.363582 96.648329 
L 582.552043 96.68379 
L 565.740505 96.752822 
L 548.928966 96.824416 
L 532.117428 96.861228 
L 515.305889 96.951728 
L 498.494351 97.192877 
L 481.682813 97.355958 
L 464.871274 97.427811 
L 448.059736 97.69288 
L 431.248197 98.151244 
L 414.436659 98.829528 
L 397.62512 99.997701 
L 380.813582 101.46748 
L 364.002043 103.272953 
L 347.190505 105.199216 
L 330.378966 107.145514 
L 313.567428 109.464173 
L 296.755889 111.976065 
L 279.944351 114.66397 
L 263.132812 117.523555 
L 246.321274 120.749942 
L 229.509736 124.242407 
L 212.698197 127.899324 
L 195.886659 132.079893 
L 179.07512 136.842327 
L 162.263582 142.040017 
L 145.452043 147.941862 
L 128.640505 155.099161 
L 111.828966 163.467611 
L 95.017428 173.380469 
L 78.205889 187.708977 
L 61.394351 213.096394 
L 44.582813 317.52 
z
" clip-path="url(#p22baf3c51a)" style="fill: #dda0dd; fill-opacity: 0.5"/>
   </g>
   <g id="PolyCollection_2">
    <path d="M 44.582813 317.52 
L 44.582813 225.30504 
L 50.663582 210.826659 
L 56.744351 200.658808 
L 62.82512 192.870863 
L 68.905889 186.570567 
L 74.986659 181.261325 
L 81.067428 176.379883 
L 87.148197 171.284366 
L 93.228966 165.751001 
L 99.309736 160.087778 
L 105.390505 154.569957 
L 111.471274 149.437284 
L 117.552043 144.836511 
L 123.632813 140.596922 
L 129.713582 136.392526 
L 135.794351 132.181732 
L 141.87512 128.268016 
L 147.955889 124.821418 
L 154.036659 121.664504 
L 160.117428 118.601521 
L 166.198197 115.676008 
L 172.278966 113.036941 
L 178.359736 110.683719 
L 184.440505 108.454494 
L 190.521274 106.250057 
L 196.602043 104.126658 
L 202.682813 102.14644 
L 208.763582 100.279257 
L 214.844351 98.464139 
L 220.92512 96.713626 
L 227.005889 95.104251 
L 233.086659 93.665265 
L 239.167428 92.332146 
L 245.248197 91.040127 
L 251.328966 89.755226 
L 257.409736 88.459779 
L 263.490505 87.204944 
L 269.571274 86.087373 
L 275.652043 85.19544 
L 281.732813 84.612258 
L 281.732813 156.377461 
L 281.732813 156.377461 
L 275.652043 156.422674 
L 269.571274 156.474317 
L 263.490505 156.53586 
L 257.409736 156.610804 
L 251.328966 156.702524 
L 245.248197 156.808629 
L 239.167428 156.91939 
L 233.086659 157.034304 
L 227.005889 157.180607 
L 220.92512 157.383614 
L 214.844351 157.619344 
L 208.763582 157.844773 
L 202.682813 158.065417 
L 196.602043 158.33294 
L 190.521274 158.679233 
L 184.440505 159.090638 
L 178.359736 159.551119 
L 172.278966 160.061369 
L 166.198197 160.629133 
L 160.117428 161.283745 
L 154.036659 162.07072 
L 147.955889 163.006775 
L 141.87512 164.060773 
L 135.794351 165.221112 
L 129.713582 166.565992 
L 123.632813 168.191834 
L 117.552043 170.096991 
L 111.471274 172.22707 
L 105.390505 174.67296 
L 99.309736 177.732346 
L 93.228966 181.68229 
L 87.148197 186.566839 
L 81.067428 192.416695 
L 74.986659 199.391074 
L 68.905889 207.790838 
L 62.82512 218.330132 
L 56.744351 232.715618 
L 50.663582 255.735531 
L 44.582813 317.52 
z
" clip-path="url(#p22baf3c51a)" style="fill: #add8e6; fill-opacity: 0.5"/>
   </g>
   <g id="PolyCollection_3">
    <path d="M 44.582813 317.52 
L 44.582813 232.144347 
L 62.109736 193.494216 
L 79.636659 170.166184 
L 97.163582 151.310729 
L 114.690505 135.508611 
L 132.217428 122.469322 
L 149.744351 111.179405 
L 167.271274 101.521789 
L 184.798197 93.555296 
L 202.32512 87.834274 
L 219.852043 83.295273 
L 237.378966 79.988553 
L 254.905889 76.033282 
L 272.432813 73.512974 
L 289.959736 71.428506 
L 307.486659 69.736711 
L 325.013582 67.946227 
L 342.540505 65.850608 
L 360.067428 63.351903 
L 377.594351 61.486203 
L 395.121274 59.019139 
L 412.648197 57.147404 
L 430.17512 55.701103 
L 447.702043 53.504515 
L 465.228966 51.988471 
L 482.755889 50.088868 
L 500.282812 48.333524 
L 517.809736 46.204539 
L 535.336659 44.385587 
L 552.863582 42.122227 
L 570.390505 40.69991 
L 587.917428 38.685688 
L 605.444351 37.282718 
L 622.971274 38.01201 
L 640.498197 36.503914 
L 658.02512 36.83953 
L 675.552043 36.138005 
L 693.078966 35.501163 
L 710.605889 35.095106 
L 728.132813 32.770252 
L 728.132813 125.650656 
L 728.132813 125.650656 
L 710.605889 125.691811 
L 693.078966 125.899464 
L 675.552043 125.807949 
L 658.02512 126.372198 
L 640.498197 126.184799 
L 622.971274 126.818603 
L 605.444351 126.711936 
L 587.917428 126.982976 
L 570.390505 126.462619 
L 552.863582 126.574815 
L 535.336659 126.789095 
L 517.809736 126.903602 
L 500.282812 127.28602 
L 482.755889 127.095424 
L 465.228966 127.16138 
L 447.702043 127.495766 
L 430.17512 127.660467 
L 412.648197 127.749524 
L 395.121274 128.400189 
L 377.594351 129.99032 
L 360.067428 130.257779 
L 342.540505 131.242441 
L 325.013582 132.572295 
L 307.486659 133.802311 
L 289.959736 135.645047 
L 272.432813 138.161544 
L 254.905889 141.171825 
L 237.378966 144.893832 
L 219.852043 148.571577 
L 202.32512 153.182079 
L 184.798197 159.294825 
L 167.271274 165.734178 
L 149.744351 172.436279 
L 132.217428 178.977733 
L 114.690505 185.298442 
L 97.163582 194.352088 
L 79.636659 208.321067 
L 62.109736 233.725971 
L 44.582813 317.52 
z
" clip-path="url(#p22baf3c51a)" style="fill: #90ee90; fill-opacity: 0.5"/>
   </g>
   <g id="line2d_52">
    <path d="M 44.582813 244.732609 
L 61.394351 201.115426 
L 78.205889 180.452723 
L 95.017428 167.663176 
L 111.828966 158.259045 
L 128.640505 150.416292 
L 145.452043 143.918141 
L 162.263582 138.43487 
L 179.07512 133.393822 
L 195.886659 128.754608 
L 212.698197 124.647986 
L 229.509736 120.901149 
L 246.321274 117.270265 
L 263.132812 113.878648 
L 279.944351 110.781356 
L 296.755889 107.806536 
L 313.567428 104.915526 
L 330.378966 102.236885 
L 347.190505 99.79856 
L 364.002043 97.436425 
L 380.813582 95.223893 
L 397.62512 93.16754 
L 414.436659 91.190526 
L 431.248197 89.266441 
L 448.059736 87.413764 
L 464.871274 85.692605 
L 481.682813 84.012402 
L 498.494351 82.417104 
L 515.305889 80.874271 
L 532.117428 79.372902 
L 548.928966 77.872363 
L 565.740505 76.407314 
L 582.552043 74.980895 
L 599.363582 73.640154 
L 611.924219 72.695185 
" clip-path="url(#p22baf3c51a)" style="fill: none; stroke: #9467bd; stroke-width: 2.5; stroke-linecap: round"/>
   </g>
   <g id="line2d_53">
    <path d="M 44.582813 251.207111 
L 50.663582 227.667704 
L 56.744351 213.382573 
L 62.82512 203.20457 
L 68.905889 195.33848 
L 74.986659 188.942761 
L 81.067428 183.568536 
L 87.148197 178.957633 
L 93.228966 174.960128 
L 99.309736 171.522464 
L 105.390505 168.608859 
L 111.471274 166.160616 
L 117.552043 164.122208 
L 123.632813 162.441563 
L 129.713582 161.068862 
L 135.794351 159.943687 
L 141.87512 158.973498 
L 147.955889 158.083456 
L 154.036659 157.263518 
L 160.117428 156.520121 
L 166.198197 155.841238 
L 172.278966 155.203812 
L 178.359736 154.596057 
L 184.440505 154.021408 
L 190.521274 153.485689 
L 196.602043 152.999099 
L 202.682813 152.570737 
L 208.763582 152.195557 
L 214.844351 151.861999 
L 220.92512 151.557797 
L 227.005889 151.269897 
L 233.086659 150.993283 
L 239.167428 150.741336 
L 245.248197 150.52719 
L 251.328966 150.348983 
L 257.409736 150.199718 
L 263.490505 150.07192 
L 269.571274 149.957748 
L 275.652043 149.84945 
L 281.732813 149.739364 
" clip-path="url(#p22baf3c51a)" style="fill: none; stroke: #1f77b4; stroke-width: 2.5; stroke-linecap: round"/>
   </g>
   <g id="line2d_54">
    <path d="M 44.582813 248.110999 
L 47.802043 234.605579 
L 51.021274 224.863229 
L 54.240505 217.235355 
L 57.459736 210.929604 
L 60.678966 205.501962 
L 63.898197 200.677965 
L 67.117428 196.276328 
L 70.336659 192.171811 
L 73.555889 188.276203 
L 76.77512 184.572236 
L 79.994351 181.110785 
L 83.213582 177.929352 
L 86.432813 175.052107 
L 89.652043 172.486509 
L 92.871274 170.204467 
L 96.090505 168.176237 
L 99.309736 166.378477 
L 102.528966 164.793367 
L 105.748197 163.413242 
L 108.967428 162.236842 
L 112.186659 161.264902 
L 115.405889 160.499943 
L 118.62512 159.930487 
L 121.844351 159.5232 
L 125.063582 159.245935 
L 128.282813 159.068786 
L 131.502043 158.964631 
L 134.721274 158.912709 
L 137.940505 158.89402 
L 141.159736 158.889721 
L 144.378966 158.882084 
L 147.598197 158.865845 
L 150.817428 158.843779 
L 154.036659 158.818792 
L 157.255889 158.793783 
L 160.47512 158.771647 
L 163.694351 158.75527 
L 166.913582 158.747536 
L 170.132812 158.751334 
" clip-path="url(#p22baf3c51a)" style="fill: none; stroke: #ff7f0e; stroke-width: 2.5; stroke-linecap: round"/>
   </g>
   <g id="line2d_55">
    <path d="M 44.582813 260.283365 
L 57.102043 218.002848 
L 69.621274 199.163349 
L 82.140505 185.378195 
L 94.659736 168.866607 
L 107.178966 154.044445 
L 119.698197 142.274147 
L 132.217428 132.348554 
L 144.736659 124.128949 
L 157.255889 117.3448 
L 169.77512 111.794344 
L 182.294351 106.931974 
L 194.813582 102.409234 
L 207.332813 98.306195 
L 219.852043 94.74971 
L 232.371274 91.603969 
L 244.890505 88.626922 
L 257.409736 85.793678 
L 269.928966 83.177022 
L 282.448197 80.761007 
L 294.967428 78.626698 
L 307.486659 76.625767 
L 320.005889 74.946032 
L 332.52512 73.842596 
L 345.044351 73.184687 
L 357.563582 72.787793 
L 370.082813 72.573492 
L 382.602043 72.466323 
L 395.121274 72.410925 
L 407.640505 72.369526 
L 420.159736 72.33835 
L 432.678966 72.315297 
L 445.198197 72.297327 
L 457.717428 72.283375 
L 470.236659 72.272967 
L 482.755889 72.26571 
L 495.27512 72.260177 
L 507.794351 72.254688 
L 520.313582 72.249398 
L 532.832813 72.244689 
" clip-path="url(#p22baf3c51a)" style="fill: none; stroke: #d62728; stroke-width: 2.5; stroke-linecap: round"/>
   </g>
   <g id="line2d_56">
    <path d="M 44.582813 260.623426 
L 62.109736 216.219766 
L 79.636659 192.303727 
L 97.163582 175.263659 
L 114.690505 162.751984 
L 132.217428 153.197021 
L 149.744351 145.465849 
L 167.271274 138.935561 
L 184.798197 133.552149 
L 202.32512 128.696142 
L 219.852043 124.22369 
L 237.378966 120.010897 
L 254.905889 116.319896 
L 272.432813 112.857201 
L 289.959736 109.663238 
L 307.486659 106.937646 
L 325.013582 104.117765 
L 342.540505 101.68665 
L 360.067428 99.513565 
L 377.594351 97.393018 
L 395.121274 95.424161 
L 412.648197 93.37677 
L 430.17512 91.379819 
L 447.702043 89.56056 
L 465.228966 87.965063 
L 482.755889 86.511443 
L 500.282812 85.052704 
L 517.809736 83.617453 
L 535.336659 81.887249 
L 552.863582 80.317325 
L 570.390505 79.075329 
L 587.917428 77.773078 
L 605.444351 76.464066 
L 611.924219 75.942085 
" clip-path="url(#p22baf3c51a)" style="fill: none; stroke: #2ca02c; stroke-width: 2.5; stroke-linecap: round"/>
   </g>
   <g id="patch_3">
    <path d="M 44.582813 332.64 
L 44.582813 0 
" style="fill: none; stroke: #cccccc; stroke-linejoin: miter; stroke-linecap: square"/>
   </g>
   <g id="patch_4">
    <path d="M 602.582813 332.64 
L 602.582813 0 
" style="fill: none; stroke: #cccccc; stroke-linejoin: miter; stroke-linecap: square"/>
   </g>
   <g id="patch_5">
    <path d="M 44.582813 332.64 
L 602.582813 332.64 
" style="fill: none; stroke: #cccccc; stroke-linejoin: miter; stroke-linecap: square"/>
   </g>
   <g id="patch_6">
    <path d="M 44.582813 0 
L 602.582813 0 
" style="fill: none; stroke: #cccccc; stroke-linejoin: miter; stroke-linecap: square"/>
   </g>
   <g id="legend_1">
    <g id="patch_7">
     <path d="M 472.392187 325.14 
L 592.082813 325.14 
Q 595.082813 325.14 595.082813 322.14 
L 595.082813 216.225938 
Q 595.082813 213.225938 592.082813 213.225938 
L 472.392187 213.225938 
Q 469.392187 213.225938 469.392187 216.225938 
L 469.392187 322.14 
Q 469.392187 325.14 472.392187 325.14 
z
" style="fill: #f5f5f5; opacity: 0.5; stroke: #cccccc; stroke-linejoin: miter"/>
    </g>
    <g id="patch_8">
     <path d="M 475.392187 230.09625 
L 505.392187 230.09625 
L 505.392187 219.59625 
L 475.392187 219.59625 
z
" style="fill: #dda0dd; fill-opacity: 0.5"/>
    </g>
    <g id="line2d_57">
     <path d="M 475.392187 224.84625 
L 490.392187 224.84625 
L 505.392187 224.84625 
" style="fill: none; stroke: #9467bd; stroke-width: 2.5; stroke-linecap: round"/>
    </g>
    <g id="text_15">
     <!-- PPO -->
     <g style="fill: #262626" transform="translate(517.392187 230.09625) scale(0.15 -0.15)">
      <defs>
       <path id="LiberationSans-50" d="M 3931 3078 
Q 3931 2791 3836 2542 
Q 3741 2294 3552 2111 
Q 3363 1928 3078 1822 
Q 2794 1716 2416 1716 
L 1122 1716 
L 1122 0 
L 525 0 
L 525 4403 
L 2378 4403 
Q 2769 4403 3059 4308 
Q 3350 4213 3544 4039 
Q 3738 3866 3834 3620 
Q 3931 3375 3931 3078 
z
M 3331 3072 
Q 3331 3491 3075 3708 
Q 2819 3925 2306 3925 
L 1122 3925 
L 1122 2188 
L 2331 2188 
Q 2847 2188 3089 2416 
Q 3331 2644 3331 3072 
z
" transform="scale(0.015625)"/>
       <path id="LiberationSans-4f" d="M 4672 2222 
Q 4672 1706 4523 1284 
Q 4375 863 4094 563 
Q 3813 263 3406 100 
Q 3000 -63 2484 -63 
Q 1941 -63 1531 107 
Q 1122 278 850 583 
Q 578 888 440 1306 
Q 303 1725 303 2222 
Q 303 2738 447 3153 
Q 591 3569 869 3861 
Q 1147 4153 1555 4311 
Q 1963 4469 2491 4469 
Q 3016 4469 3423 4309 
Q 3831 4150 4107 3856 
Q 4384 3563 4528 3147 
Q 4672 2731 4672 2222 
z
M 4063 2222 
Q 4063 2619 3961 2944 
Q 3859 3269 3661 3500 
Q 3463 3731 3169 3856 
Q 2875 3981 2491 3981 
Q 2097 3981 1800 3856 
Q 1503 3731 1304 3500 
Q 1106 3269 1007 2944 
Q 909 2619 909 2222 
Q 909 1825 1011 1495 
Q 1113 1166 1311 927 
Q 1509 688 1804 555 
Q 2100 422 2484 422 
Q 2897 422 3195 556 
Q 3494 691 3686 930 
Q 3878 1169 3970 1500 
Q 4063 1831 4063 2222 
z
" transform="scale(0.015625)"/>
      </defs>
      <use xlink:href="#LiberationSans-50"/>
      <use xlink:href="#LiberationSans-50" x="66.699219"/>
      <use xlink:href="#LiberationSans-4f" x="133.398438"/>
     </g>
    </g>
    <g id="patch_9">
     <path d="M 475.392187 251.579063 
L 505.392187 251.579063 
L 505.392187 241.079063 
L 475.392187 241.079063 
z
" style="fill: #add8e6; fill-opacity: 0.5"/>
    </g>
    <g id="line2d_58">
     <path d="M 475.392187 246.329063 
L 490.392187 246.329063 
L 505.392187 246.329063 
" style="fill: none; stroke: #1f77b4; stroke-width: 2.5; stroke-linecap: round"/>
    </g>
    <g id="text_16">
     <!-- CALF -->
     <g style="fill: #262626" transform="translate(517.392187 251.579063) scale(0.15 -0.15)">
      <defs>
       <path id="LiberationSans-43" d="M 2475 3981 
Q 2100 3981 1811 3856 
Q 1522 3731 1326 3500 
Q 1131 3269 1031 2944 
Q 931 2619 931 2222 
Q 931 1825 1039 1495 
Q 1147 1166 1348 928 
Q 1550 691 1842 559 
Q 2134 428 2500 428 
Q 2756 428 2967 495 
Q 3178 563 3348 684 
Q 3519 806 3653 973 
Q 3788 1141 3891 1344 
L 4378 1100 
Q 4259 853 4084 640 
Q 3909 428 3673 272 
Q 3438 116 3139 26 
Q 2841 -63 2472 -63 
Q 1938 -63 1536 107 
Q 1134 278 864 583 
Q 594 888 459 1306 
Q 325 1725 325 2222 
Q 325 2738 467 3153 
Q 609 3569 882 3861 
Q 1156 4153 1556 4311 
Q 1956 4469 2469 4469 
Q 3172 4469 3644 4194 
Q 4116 3919 4338 3378 
L 3772 3191 
Q 3709 3347 3603 3489 
Q 3497 3631 3337 3740 
Q 3178 3850 2964 3915 
Q 2750 3981 2475 3981 
z
" transform="scale(0.015625)"/>
       <path id="LiberationSans-4c" d="M 525 0 
L 525 4403 
L 1122 4403 
L 1122 488 
L 3347 488 
L 3347 0 
L 525 0 
z
" transform="scale(0.015625)"/>
       <path id="LiberationSans-46" d="M 1122 3916 
L 1122 2278 
L 3578 2278 
L 3578 1784 
L 1122 1784 
L 1122 0 
L 525 0 
L 525 4403 
L 3653 4403 
L 3653 3916 
L 1122 3916 
z
" transform="scale(0.015625)"/>
      </defs>
      <use xlink:href="#LiberationSans-43"/>
      <use xlink:href="#LiberationSans-41" x="72.216797"/>
      <use xlink:href="#LiberationSans-4c" x="138.916016"/>
      <use xlink:href="#LiberationSans-46" x="194.53125"/>
     </g>
    </g>
    <g id="patch_10">
     <path d="M 475.392187 273.061875 
L 505.392187 273.061875 
L 505.392187 262.561875 
L 475.392187 262.561875 
z
" style="fill: #90ee90; fill-opacity: 0.5"/>
    </g>
    <g id="line2d_59">
     <path d="M 475.392187 267.811875 
L 490.392187 267.811875 
L 505.392187 267.811875 
" style="fill: none; stroke: #2ca02c; stroke-width: 2.5; stroke-linecap: round"/>
    </g>
    <g id="text_17">
     <!-- SARSA_m -->
     <g style="fill: #262626" transform="translate(517.392187 273.061875) scale(0.15 -0.15)">
      <defs>
       <path id="LiberationSans-53" d="M 3975 1216 
Q 3975 938 3867 703 
Q 3759 469 3534 298 
Q 3309 128 2967 32 
Q 2625 -63 2156 -63 
Q 1334 -63 875 225 
Q 416 513 291 1056 
L 869 1172 
Q 913 1000 1003 859 
Q 1094 719 1248 617 
Q 1403 516 1631 459 
Q 1859 403 2178 403 
Q 2444 403 2666 448 
Q 2888 494 3047 587 
Q 3206 681 3295 829 
Q 3384 978 3384 1184 
Q 3384 1400 3286 1534 
Q 3188 1669 3009 1756 
Q 2831 1844 2584 1903 
Q 2338 1963 2038 2031 
Q 1853 2072 1667 2120 
Q 1481 2169 1311 2236 
Q 1141 2303 991 2393 
Q 841 2484 731 2611 
Q 622 2738 559 2905 
Q 497 3072 497 3291 
Q 497 3603 623 3826 
Q 750 4050 975 4194 
Q 1200 4338 1506 4403 
Q 1813 4469 2169 4469 
Q 2578 4469 2868 4405 
Q 3159 4341 3359 4212 
Q 3559 4084 3679 3895 
Q 3800 3706 3872 3456 
L 3284 3353 
Q 3241 3513 3158 3638 
Q 3075 3763 2940 3847 
Q 2806 3931 2614 3975 
Q 2422 4019 2163 4019 
Q 1856 4019 1648 3964 
Q 1441 3909 1314 3815 
Q 1188 3722 1133 3595 
Q 1078 3469 1078 3322 
Q 1078 3125 1176 2998 
Q 1275 2872 1444 2787 
Q 1613 2703 1834 2647 
Q 2056 2591 2306 2534 
Q 2509 2488 2711 2439 
Q 2913 2391 3097 2323 
Q 3281 2256 3442 2165 
Q 3603 2075 3722 1944 
Q 3841 1813 3908 1634 
Q 3975 1456 3975 1216 
z
" transform="scale(0.015625)"/>
       <path id="LiberationSans-52" d="M 3638 0 
L 2494 1828 
L 1122 1828 
L 1122 0 
L 525 0 
L 525 4403 
L 2597 4403 
Q 2972 4403 3261 4317 
Q 3550 4231 3747 4068 
Q 3944 3906 4047 3672 
Q 4150 3438 4150 3144 
Q 4150 2934 4089 2731 
Q 4028 2528 3897 2359 
Q 3766 2191 3562 2069 
Q 3359 1947 3075 1897 
L 4325 0 
L 3638 0 
z
M 3550 3138 
Q 3550 3338 3481 3484 
Q 3413 3631 3281 3729 
Q 3150 3828 2962 3876 
Q 2775 3925 2538 3925 
L 1122 3925 
L 1122 2300 
L 2563 2300 
Q 2819 2300 3006 2364 
Q 3194 2428 3314 2540 
Q 3434 2653 3492 2806 
Q 3550 2959 3550 3138 
z
" transform="scale(0.015625)"/>
       <path id="LiberationSans-5f" d="M -97 -1272 
L -97 -866 
L 3631 -866 
L 3631 -1272 
L -97 -1272 
z
" transform="scale(0.015625)"/>
      </defs>
      <use xlink:href="#LiberationSans-53"/>
      <use xlink:href="#LiberationSans-41" x="66.699219"/>
      <use xlink:href="#LiberationSans-52" x="133.398438"/>
      <use xlink:href="#LiberationSans-53" x="205.615234"/>
      <use xlink:href="#LiberationSans-41" x="272.314453"/>
      <use xlink:href="#LiberationSans-5f" x="339.013672"/>
      <use xlink:href="#LiberationSans-6d" x="394.628906"/>
     </g>
    </g>
    <g id="line2d_60">
     <path d="M 475.392187 289.294688 
L 490.392187 289.294688 
L 505.392187 289.294688 
" style="fill: none; stroke: #ff7f0e; stroke-width: 2.5; stroke-linecap: round"/>
    </g>
    <g id="text_18">
     <!-- MPC-10 -->
     <g style="fill: #262626" transform="translate(517.392187 294.544688) scale(0.15 -0.15)">
      <defs>
       <path id="LiberationSans-4d" d="M 4269 0 
L 4269 2938 
Q 4269 3097 4272 3262 
Q 4275 3428 4281 3566 
Q 4288 3725 4297 3875 
Q 4253 3716 4206 3559 
Q 4166 3425 4117 3273 
Q 4069 3122 4022 3000 
L 2884 0 
L 2466 0 
L 1313 3000 
Q 1294 3047 1273 3109 
Q 1253 3172 1229 3242 
Q 1206 3313 1182 3386 
Q 1159 3459 1138 3531 
Q 1084 3697 1034 3875 
Q 1038 3700 1044 3528 
Q 1050 3381 1053 3220 
Q 1056 3059 1056 2938 
L 1056 0 
L 525 0 
L 525 4403 
L 1309 4403 
L 2481 1350 
Q 2503 1288 2534 1189 
Q 2566 1091 2594 987 
Q 2622 884 2645 792 
Q 2669 700 2678 650 
Q 2688 700 2713 794 
Q 2738 888 2770 991 
Q 2803 1094 2834 1191 
Q 2866 1288 2891 1350 
L 4041 4403 
L 4806 4403 
L 4806 0 
L 4269 0 
z
" transform="scale(0.015625)"/>
       <path id="LiberationSans-2d" d="M 284 1450 
L 284 1950 
L 1847 1950 
L 1847 1450 
L 284 1450 
z
" transform="scale(0.015625)"/>
      </defs>
      <use xlink:href="#LiberationSans-4d"/>
      <use xlink:href="#LiberationSans-50" x="83.300781"/>
      <use xlink:href="#LiberationSans-43" x="150"/>
      <use xlink:href="#LiberationSans-2d" x="222.216797"/>
      <use xlink:href="#LiberationSans-31" x="255.517578"/>
      <use xlink:href="#LiberationSans-30" x="311.132812"/>
     </g>
    </g>
    <g id="line2d_61">
     <path d="M 475.392187 310.7775 
L 490.392187 310.7775 
L 505.392187 310.7775 
" style="fill: none; stroke: #d62728; stroke-width: 2.5; stroke-linecap: round"/>
    </g>
    <g id="text_19">
     <!-- Nominal -->
     <g style="fill: #262626" transform="translate(517.392187 316.0275) scale(0.15 -0.15)">
      <defs>
       <path id="LiberationSans-4e" d="M 3381 0 
L 1025 3750 
Q 1031 3597 1041 3447 
Q 1047 3319 1051 3176 
Q 1056 3034 1056 2925 
L 1056 0 
L 525 0 
L 525 4403 
L 1219 4403 
L 3600 628 
Q 3591 781 3581 934 
Q 3575 1066 3569 1220 
Q 3563 1375 3563 1516 
L 3563 4403 
L 4100 4403 
L 4100 0 
L 3381 0 
z
" transform="scale(0.015625)"/>
       <path id="LiberationSans-6e" d="M 2578 0 
L 2578 2144 
Q 2578 2391 2542 2556 
Q 2506 2722 2425 2823 
Q 2344 2925 2211 2967 
Q 2078 3009 1881 3009 
Q 1681 3009 1520 2939 
Q 1359 2869 1245 2736 
Q 1131 2603 1068 2408 
Q 1006 2213 1006 1959 
L 1006 0 
L 444 0 
L 444 2659 
Q 444 2766 442 2883 
Q 441 3000 437 3104 
Q 434 3209 431 3284 
Q 428 3359 425 3381 
L 956 3381 
Q 959 3366 962 3297 
Q 966 3228 970 3139 
Q 975 3050 978 2958 
Q 981 2866 981 2803 
L 991 2803 
Q 1072 2950 1169 3069 
Q 1266 3188 1394 3270 
Q 1522 3353 1687 3398 
Q 1853 3444 2072 3444 
Q 2353 3444 2556 3375 
Q 2759 3306 2890 3162 
Q 3022 3019 3083 2792 
Q 3144 2566 3144 2253 
L 3144 0 
L 2578 0 
z
" transform="scale(0.015625)"/>
      </defs>
      <use xlink:href="#LiberationSans-4e"/>
      <use xlink:href="#LiberationSans-6f" x="72.216797"/>
      <use xlink:href="#LiberationSans-6d" x="127.832031"/>
      <use xlink:href="#LiberationSans-69" x="211.132812"/>
      <use xlink:href="#LiberationSans-6e" x="233.349609"/>
      <use xlink:href="#LiberationSans-61" x="288.964844"/>
      <use xlink:href="#LiberationSans-6c" x="344.580078"/>
     </g>
    </g>
   </g>
  </g>
 </g>
 <defs>
  <clipPath id="p22baf3c51a">
   <rect x="44.582813" y="0" width="558" height="332.64"/>
  </clipPath>
 </defs>
</svg>
