<?xml version="1.0" encoding="utf-8" standalone="no"?>
<!DOCTYPE svg PUBLIC "-//W3C//DTD SVG 1.1//EN"
  "http://www.w3.org/Graphics/SVG/1.1/DTD/svg11.dtd">
<svg xmlns:xlink="http://www.w3.org/1999/xlink" width="723.526406pt" height="410.2475pt" viewBox="0 0 723.526406 410.2475" xmlns="http://www.w3.org/2000/svg" version="1.1">
 <metadata>
  <rdf:RDF xmlns:dc="http://purl.org/dc/elements/1.1/" xmlns:cc="http://creativecommons.org/ns#" xmlns:rdf="http://www.w3.org/1999/02/22-rdf-syntax-ns#">
   <cc:Work>
    <dc:type rdf:resource="http://purl.org/dc/dcmitype/StillImage"/>
    <dc:date>2024-09-14T19:16:15.082744</dc:date>
    <dc:format>image/svg+xml</dc:format>
    <dc:creator>
     <cc:Agent>
      <dc:title>Matplotlib v3.9.0, https://matplotlib.org/</dc:title>
     </cc:Agent>
    </dc:creator>
   </cc:Work>
  </rdf:RDF>
 </metadata>
 <defs>
  <style type="text/css">*{stroke-linejoin: round; stroke-linecap: butt}</style>
 </defs>
 <g id="figure_1">
  <g id="patch_1">
   <path d="M 0 410.2475 
L 723.526406 410.2475 
L 723.526406 0 
L 0 0 
z
" style="fill: #ffffff"/>
  </g>
  <g id="axes_1">
   <g id="patch_2">
    <path d="M 62.45 171.33 
L 715.185 171.33 
L 715.185 0 
L 62.45 0 
z
" style="fill: #ffffff"/>
   </g>
   <g id="matplotlib.axis_1">
    <g id="xtick_1">
     <g id="line2d_1">
      <path d="M 62.45 171.33 
L 62.45 0 
" clip-path="url(#pcc5b8b15fa)" style="fill: none; stroke: #cccccc; stroke-width: 0.8; stroke-linecap: round"/>
     </g>
     <g id="line2d_2"/>
    </g>
    <g id="xtick_2">
     <g id="line2d_3">
      <path d="M 144.041875 171.33 
L 144.041875 0 
" clip-path="url(#pcc5b8b15fa)" style="fill: none; stroke: #cccccc; stroke-width: 0.8; stroke-linecap: round"/>
     </g>
     <g id="line2d_4"/>
    </g>
    <g id="xtick_3">
     <g id="line2d_5">
      <path d="M 225.63375 171.33 
L 225.63375 0 
" clip-path="url(#pcc5b8b15fa)" style="fill: none; stroke: #cccccc; stroke-width: 0.8; stroke-linecap: round"/>
     </g>
     <g id="line2d_6"/>
    </g>
    <g id="xtick_4">
     <g id="line2d_7">
      <path d="M 307.225625 171.33 
L 307.225625 0 
" clip-path="url(#pcc5b8b15fa)" style="fill: none; stroke: #cccccc; stroke-width: 0.8; stroke-linecap: round"/>
     </g>
     <g id="line2d_8"/>
    </g>
    <g id="xtick_5">
     <g id="line2d_9">
      <path d="M 388.8175 171.33 
L 388.8175 0 
" clip-path="url(#pcc5b8b15fa)" style="fill: none; stroke: #cccccc; stroke-width: 0.8; stroke-linecap: round"/>
     </g>
     <g id="line2d_10"/>
    </g>
    <g id="xtick_6">
     <g id="line2d_11">
      <path d="M 470.409375 171.33 
L 470.409375 0 
" clip-path="url(#pcc5b8b15fa)" style="fill: none; stroke: #cccccc; stroke-width: 0.8; stroke-linecap: round"/>
     </g>
     <g id="line2d_12"/>
    </g>
    <g id="xtick_7">
     <g id="line2d_13">
      <path d="M 552.00125 171.33 
L 552.00125 0 
" clip-path="url(#pcc5b8b15fa)" style="fill: none; stroke: #cccccc; stroke-width: 0.8; stroke-linecap: round"/>
     </g>
     <g id="line2d_14"/>
    </g>
    <g id="xtick_8">
     <g id="line2d_15">
      <path d="M 633.593125 171.33 
L 633.593125 0 
" clip-path="url(#pcc5b8b15fa)" style="fill: none; stroke: #cccccc; stroke-width: 0.8; stroke-linecap: round"/>
     </g>
     <g id="line2d_16"/>
    </g>
    <g id="xtick_9">
     <g id="line2d_17">
      <path d="M 715.185 171.33 
L 715.185 0 
" clip-path="url(#pcc5b8b15fa)" style="fill: none; stroke: #cccccc; stroke-width: 0.8; stroke-linecap: round"/>
     </g>
     <g id="line2d_18"/>
    </g>
   </g>
   <g id="matplotlib.axis_2">
    <g id="ytick_1">
     <g id="line2d_19">
      <path d="M 62.45 42.211009 
L 715.185 42.211009 
" clip-path="url(#pcc5b8b15fa)" style="fill: none; stroke: #cccccc; stroke-width: 0.8; stroke-linecap: round"/>
     </g>
     <g id="line2d_20"/>
     <g id="text_1">
      <!-- $\mathdefault{10^{4}}$ -->
      <g style="fill: #262626" transform="translate(35.85 47.646166) scale(0.15 -0.15)">
       <defs>
        <path id="LiberationSans-31" d="M 488 0 
L 488 478 
L 1609 478 
L 1609 3866 
L 616 3156 
L 616 3688 
L 1656 4403 
L 2175 4403 
L 2175 478 
L 3247 478 
L 3247 0 
L 488 0 
z
" transform="scale(0.015625)"/>
        <path id="LiberationSans-30" d="M 3309 2203 
Q 3309 1569 3189 1136 
Q 3069 703 2861 436 
Q 2653 169 2372 53 
Q 2091 -63 1772 -63 
Q 1450 -63 1172 53 
Q 894 169 689 434 
Q 484 700 367 1133 
Q 250 1566 250 2203 
Q 250 2869 367 3305 
Q 484 3741 690 4000 
Q 897 4259 1178 4364 
Q 1459 4469 1791 4469 
Q 2106 4469 2382 4364 
Q 2659 4259 2865 4000 
Q 3072 3741 3190 3305 
Q 3309 2869 3309 2203 
z
M 2738 2203 
Q 2738 2728 2675 3076 
Q 2613 3425 2491 3633 
Q 2369 3841 2192 3927 
Q 2016 4013 1791 4013 
Q 1553 4013 1372 3925 
Q 1191 3838 1067 3630 
Q 944 3422 881 3073 
Q 819 2725 819 2203 
Q 819 1697 883 1350 
Q 947 1003 1070 792 
Q 1194 581 1372 489 
Q 1550 397 1778 397 
Q 2000 397 2178 489 
Q 2356 581 2479 792 
Q 2603 1003 2670 1350 
Q 2738 1697 2738 2203 
z
" transform="scale(0.015625)"/>
        <path id="LiberationSans-34" d="M 2753 997 
L 2753 0 
L 2222 0 
L 2222 997 
L 147 997 
L 147 1434 
L 2163 4403 
L 2753 4403 
L 2753 1441 
L 3372 1441 
L 3372 997 
L 2753 997 
z
M 2222 3769 
Q 2216 3753 2191 3708 
Q 2166 3663 2134 3606 
Q 2103 3550 2070 3492 
Q 2038 3434 2013 3397 
L 884 1734 
Q 869 1709 839 1668 
Q 809 1628 778 1586 
Q 747 1544 715 1503 
Q 684 1463 666 1441 
L 2222 1441 
L 2222 3769 
z
" transform="scale(0.015625)"/>
       </defs>
       <use xlink:href="#LiberationSans-31" transform="translate(0 0.8625)"/>
       <use xlink:href="#LiberationSans-30" transform="translate(55.615234 0.8625)"/>
       <use xlink:href="#LiberationSans-34" transform="translate(112.154961 37.842188) scale(0.7)"/>
      </g>
     </g>
    </g>
    <g id="ytick_2">
     <g id="line2d_21"/>
    </g>
    <g id="ytick_3">
     <g id="line2d_22"/>
    </g>
    <g id="ytick_4">
     <g id="line2d_23"/>
    </g>
    <g id="ytick_5">
     <g id="line2d_24"/>
    </g>
    <g id="ytick_6">
     <g id="line2d_25"/>
    </g>
    <g id="ytick_7">
     <g id="line2d_26"/>
    </g>
    <g id="ytick_8">
     <g id="line2d_27"/>
    </g>
    <g id="ytick_9">
     <g id="line2d_28"/>
    </g>
    <g id="ytick_10">
     <g id="line2d_29"/>
    </g>
   </g>
   <g id="PolyCollection_1">
    <path d="M 78.768375 46.85152 
L 78.768375 37.809256 
L 120.191942 44.376031 
L 161.61551 46.451931 
L 203.039077 47.211233 
L 244.462644 47.143884 
L 285.886212 47.144941 
L 327.309779 47.145017 
L 368.733346 47.145015 
L 410.156913 47.145015 
L 451.580481 47.145015 
L 493.004048 47.145015 
L 534.427615 47.145015 
L 575.851183 47.145015 
L 617.27475 47.145015 
L 658.698317 47.145015 
L 700.121885 47.145015 
L 741.545452 47.145015 
L 782.969019 47.145015 
L 824.392587 47.145015 
L 865.816154 47.145015 
L 907.239721 47.145015 
L 948.663288 47.145015 
L 990.086856 47.145015 
L 1031.510423 47.145015 
L 1072.93399 47.145015 
L 1114.357558 47.145015 
L 1155.781125 47.145015 
L 1197.204692 47.145015 
L 1238.62826 47.145015 
L 1280.051827 47.145015 
L 1321.475394 47.145015 
L 1362.898962 47.145015 
L 1404.322529 47.145015 
L 1445.746096 47.145015 
L 1487.169663 47.145015 
L 1528.593231 47.145015 
L 1570.016798 47.145015 
L 1611.440365 47.145015 
L 1652.863933 47.145015 
L 1694.2875 47.145015 
L 1694.2875 113.546665 
L 1694.2875 113.546665 
L 1652.863933 113.546673 
L 1611.440365 113.546606 
L 1570.016798 113.540664 
L 1528.593231 113.63761 
L 1487.169663 110.536173 
L 1445.746096 110.724793 
L 1404.322529 110.718824 
L 1362.898962 110.765527 
L 1321.475394 111.42299 
L 1280.051827 102.091969 
L 1238.62826 101.862172 
L 1197.204692 100.725 
L 1155.781125 95.392937 
L 1114.357558 94.147489 
L 1072.93399 94.142412 
L 1031.510423 93.975002 
L 990.086856 88.157507 
L 948.663288 88.522268 
L 907.239721 88.548366 
L 865.816154 88.543894 
L 824.392587 88.694483 
L 782.969019 86.320744 
L 741.545452 86.390782 
L 700.121885 86.380383 
L 658.698317 87.212515 
L 617.27475 78.313338 
L 575.851183 75.39304 
L 534.427615 63.700264 
L 493.004048 61.533964 
L 451.580481 60.144078 
L 410.156913 60.031314 
L 368.733346 59.98054 
L 327.309779 59.981415 
L 285.886212 59.992286 
L 244.462644 60.143356 
L 203.039077 57.258338 
L 161.61551 55.939758 
L 120.191942 52.926245 
L 78.768375 46.85152 
z
" clip-path="url(#pcc5b8b15fa)" style="fill: #dda0dd; fill-opacity: 0.5"/>
   </g>
   <g id="PolyCollection_2">
    <path d="M 78.768375 177.040655 
L 78.768375 101.72308 
L 95.08675 155.259859 
L 111.405125 155.259859 
L 127.7235 155.259859 
L 144.041875 155.259859 
L 160.36025 155.259859 
L 176.678625 155.259859 
L 192.997 155.259859 
L 209.315375 155.259859 
L 225.63375 156.702739 
L 241.952125 156.702739 
L 258.2705 156.702739 
L 274.588875 156.702739 
L 290.90725 156.702739 
L 307.225625 156.702739 
L 323.544 156.702739 
L 339.862375 156.702739 
L 356.18075 156.702739 
L 372.499125 156.702739 
L 388.8175 156.702739 
L 405.135875 156.702739 
L 421.45425 156.702739 
L 437.772625 156.702739 
L 454.091 156.702739 
L 470.409375 156.702739 
L 486.72775 156.702739 
L 503.046125 156.702739 
L 519.3645 156.702739 
L 535.682875 156.702739 
L 552.00125 156.702739 
L 568.319625 156.702739 
L 584.638 156.702739 
L 600.956375 156.702739 
L 617.27475 156.702739 
L 633.593125 156.702739 
L 649.9115 159.03644 
L 666.229875 159.03644 
L 682.54825 159.03644 
L 698.866625 159.03644 
L 715.185 159.03644 
L 715.185 183.240849 
L 715.185 183.240849 
L 698.866625 183.240849 
L 682.54825 182.313148 
L 666.229875 182.313148 
L 649.9115 182.313148 
L 633.593125 182.313148 
L 617.27475 182.313148 
L 600.956375 182.313148 
L 584.638 182.313148 
L 568.319625 182.313148 
L 552.00125 182.313148 
L 535.682875 182.313148 
L 519.3645 182.313148 
L 503.046125 182.313148 
L 486.72775 182.313148 
L 470.409375 182.313148 
L 454.091 182.313148 
L 437.772625 182.313148 
L 421.45425 182.313148 
L 405.135875 182.313148 
L 388.8175 181.460027 
L 372.499125 181.460027 
L 356.18075 181.460027 
L 339.862375 181.460027 
L 323.544 181.460027 
L 307.225625 181.460027 
L 290.90725 181.460027 
L 274.588875 181.460027 
L 258.2705 181.460027 
L 241.952125 181.460027 
L 225.63375 181.460027 
L 209.315375 181.460027 
L 192.997 180.882657 
L 176.678625 180.882657 
L 160.36025 180.684208 
L 144.041875 180.684208 
L 127.7235 180.684208 
L 111.405125 179.209519 
L 95.08675 178.481348 
L 78.768375 177.040655 
z
" clip-path="url(#pcc5b8b15fa)" style="fill: #add8e6; fill-opacity: 0.5"/>
   </g>
   <g id="PolyCollection_3">
    <path d="M 78.768375 101.051663 
L 78.768375 -1.581809 
L 99.270949 9.937016 
L 119.773522 9.254322 
L 140.276096 9.409234 
L 160.77867 9.392702 
L 181.281244 9.643989 
L 201.783817 7.8382 
L 222.286391 23.471418 
L 242.788965 26.642293 
L 263.291538 26.953882 
L 283.794112 26.766884 
L 304.296686 26.806217 
L 324.79926 26.802661 
L 345.301833 26.802132 
L 365.804407 26.802391 
L 386.306981 26.802341 
L 406.809554 26.802348 
L 427.312128 26.802283 
L 447.814702 26.802665 
L 468.317276 26.801631 
L 488.819849 26.798379 
L 509.322423 26.849969 
L 529.824997 26.571051 
L 550.327571 28.791202 
L 570.830144 28.984685 
L 591.332718 28.128492 
L 611.835292 36.366317 
L 632.337865 45.374093 
L 652.840439 45.416549 
L 673.343013 45.452597 
L 693.845587 45.441661 
L 714.34816 45.443295 
L 734.850734 45.443275 
L 755.353308 45.443223 
L 775.855881 45.443237 
L 796.358455 45.443235 
L 816.861029 45.443235 
L 837.363603 45.443235 
L 857.866176 45.443235 
L 878.36875 45.443235 
L 878.36875 163.696472 
L 878.36875 163.696472 
L 857.866176 163.696472 
L 837.363603 163.696474 
L 816.861029 163.696465 
L 796.358455 163.696467 
L 775.855881 163.696729 
L 755.353308 163.694828 
L 734.850734 163.701639 
L 714.34816 163.704191 
L 693.845587 163.493189 
L 673.343013 164.919737 
L 652.840439 153.892271 
L 632.337865 147.108785 
L 611.835292 147.242599 
L 591.332718 147.176999 
L 570.830144 147.189931 
L 550.327571 147.188933 
L 529.824997 147.188717 
L 509.322423 147.188807 
L 488.819849 147.188791 
L 468.317276 147.188792 
L 447.814702 147.188792 
L 427.312128 147.188792 
L 406.809554 147.188792 
L 386.306981 147.188793 
L 365.804407 147.188785 
L 345.301833 147.188825 
L 324.79926 147.188743 
L 304.296686 147.188194 
L 283.794112 147.194274 
L 263.291538 147.165407 
L 242.788965 147.213564 
L 222.286391 147.693104 
L 201.783817 142.125192 
L 181.281244 135.999718 
L 160.77867 136.568524 
L 140.276096 136.046228 
L 119.773522 140.780191 
L 99.270949 108.969947 
L 78.768375 101.051663 
z
" clip-path="url(#pcc5b8b15fa)" style="fill: #90ee90; fill-opacity: 0.5"/>
   </g>
   <g id="line2d_30">
    <path d="M 78.768375 44.86432 
L 120.191942 51.260454 
L 161.61551 54.21284 
L 203.039077 55.410034 
L 244.462644 55.704088 
L 285.886212 55.604588 
L 327.309779 55.500666 
L 368.733346 55.695135 
L 410.156913 56.380814 
L 451.580481 57.624955 
L 493.004048 59.377342 
L 534.427615 61.498533 
L 575.851183 63.802039 
L 617.27475 66.10362 
L 658.698317 68.26758 
L 700.121885 70.236889 
L 724.526406 71.297183 
" clip-path="url(#pcc5b8b15fa)" style="fill: none; stroke: #9467bd; stroke-width: 2.5; stroke-linecap: round"/>
   </g>
   <g id="line2d_31">
    <path d="M 78.768375 175.799804 
L 95.08675 176.403624 
L 111.405125 177.024781 
L 127.7235 177.505587 
L 144.041875 177.826688 
L 160.36025 178.024517 
L 176.678625 178.145376 
L 192.997 178.225021 
L 209.315375 178.283947 
L 225.63375 178.330584 
L 241.952125 178.367008 
L 258.2705 178.394012 
L 274.588875 178.414098 
L 290.90725 178.432153 
L 307.225625 178.454328 
L 323.544 178.486002 
L 339.862375 178.529777 
L 356.18075 178.584267 
L 372.499125 178.644135 
L 388.8175 178.701453 
L 405.135875 178.748084 
L 421.45425 178.778498 
L 437.772625 178.7922 
L 454.091 178.794957 
L 470.409375 178.798192 
L 486.72775 178.816295 
L 503.046125 178.862137 
L 519.3645 178.941638 
L 535.682875 179.048816 
L 552.00125 179.163226 
L 568.319625 179.251975 
L 584.638 179.278313 
L 600.956375 179.217566 
L 617.27475 179.078527 
L 633.593125 178.924294 
L 649.9115 178.881597 
L 666.229875 179.121715 
L 682.54825 179.7853 
L 698.866625 180.798443 
L 715.185 181.486729 
" clip-path="url(#pcc5b8b15fa)" style="fill: none; stroke: #1f77b4; stroke-width: 2.5; stroke-linecap: round"/>
   </g>
   <g id="line2d_32">
    <path d="M 62.45 183.429062 
L 715.185 183.429062 
" clip-path="url(#pcc5b8b15fa)" style="fill: none; stroke: #ff7f0e; stroke-width: 2.5; stroke-linecap: round"/>
   </g>
   <g id="line2d_33">
    <path d="M 62.45 56.858361 
L 715.185 56.858361 
" clip-path="url(#pcc5b8b15fa)" style="fill: none; stroke: #d62728; stroke-width: 2.5; stroke-linecap: round"/>
   </g>
   <g id="line2d_34">
    <path d="M 78.768375 84.00802 
L 99.270949 97.797167 
L 119.773522 110.230983 
L 140.276096 118.327117 
L 160.77867 122.797867 
L 181.281244 125.794616 
L 201.783817 128.851104 
L 222.286391 132.364694 
L 242.788965 135.910154 
L 263.291538 138.732677 
L 283.794112 140.232593 
L 304.296686 140.297355 
L 324.79926 139.321818 
L 345.301833 137.955763 
L 365.804407 136.803474 
L 386.306981 136.242698 
L 406.809554 136.376263 
L 427.312128 137.063846 
L 447.814702 137.997144 
L 468.317276 138.807422 
L 488.819849 139.193048 
L 509.322423 139.030048 
L 529.824997 138.414658 
L 550.327571 137.614258 
L 570.830144 136.954498 
L 591.332718 136.696608 
L 611.835292 136.945117 
L 632.337865 137.603119 
L 652.840439 138.386931 
L 673.343013 138.917828 
L 693.845587 138.892549 
L 714.34816 138.273376 
L 724.526406 137.828278 
" clip-path="url(#pcc5b8b15fa)" style="fill: none; stroke: #2ca02c; stroke-width: 2.5; stroke-linecap: round"/>
   </g>
   <g id="line2d_35">
    <defs>
     <path id="m18cc055d43" d="M -6 3 
L 6 -3 
" style="stroke: #000000"/>
    </defs>
    <g>
     <use xlink:href="#m18cc055d43" x="62.45" y="171.33" style="stroke: #000000"/>
     <use xlink:href="#m18cc055d43" x="715.185" y="171.33" style="stroke: #000000"/>
    </g>
   </g>
   <g id="patch_3">
    <path d="M 62.45 171.33 
L 62.45 0 
" style="fill: none; stroke: #cccccc; stroke-linejoin: miter; stroke-linecap: square"/>
   </g>
   <g id="patch_4">
    <path d="M 715.185 171.33 
L 715.185 0 
" style="fill: none; stroke: #cccccc; stroke-linejoin: miter; stroke-linecap: square"/>
   </g>
   <g id="patch_5">
    <path d="M 62.45 0 
L 715.185 0 
" style="fill: none; stroke: #cccccc; stroke-linejoin: miter; stroke-linecap: square"/>
   </g>
   <g id="legend_1">
    <g id="patch_6">
     <path d="M 584.994375 119.414062 
L 704.685 119.414062 
Q 707.685 119.414062 707.685 116.414062 
L 707.685 10.5 
Q 707.685 7.5 704.685 7.5 
L 584.994375 7.5 
Q 581.994375 7.5 581.994375 10.5 
L 581.994375 116.414062 
Q 581.994375 119.414062 584.994375 119.414062 
z
" style="fill: #f5f5f5; opacity: 0.5; stroke: #cccccc; stroke-linejoin: miter"/>
    </g>
    <g id="patch_7">
     <path d="M 587.994375 24.370313 
L 617.994375 24.370313 
L 617.994375 13.870313 
L 587.994375 13.870313 
z
" style="fill: #dda0dd; fill-opacity: 0.5"/>
    </g>
    <g id="line2d_36">
     <path d="M 587.994375 19.120313 
L 602.994375 19.120313 
L 617.994375 19.120313 
" style="fill: none; stroke: #9467bd; stroke-width: 2.5; stroke-linecap: round"/>
    </g>
    <g id="text_2">
     <!-- PPO -->
     <g style="fill: #262626" transform="translate(629.994375 24.370313) scale(0.15 -0.15)">
      <defs>
       <path id="LiberationSans-50" d="M 3931 3078 
Q 3931 2791 3836 2542 
Q 3741 2294 3552 2111 
Q 3363 1928 3078 1822 
Q 2794 1716 2416 1716 
L 1122 1716 
L 1122 0 
L 525 0 
L 525 4403 
L 2378 4403 
Q 2769 4403 3059 4308 
Q 3350 4213 3544 4039 
Q 3738 3866 3834 3620 
Q 3931 3375 3931 3078 
z
M 3331 3072 
Q 3331 3491 3075 3708 
Q 2819 3925 2306 3925 
L 1122 3925 
L 1122 2188 
L 2331 2188 
Q 2847 2188 3089 2416 
Q 3331 2644 3331 3072 
z
" transform="scale(0.015625)"/>
       <path id="LiberationSans-4f" d="M 4672 2222 
Q 4672 1706 4523 1284 
Q 4375 863 4094 563 
Q 3813 263 3406 100 
Q 3000 -63 2484 -63 
Q 1941 -63 1531 107 
Q 1122 278 850 583 
Q 578 888 440 1306 
Q 303 1725 303 2222 
Q 303 2738 447 3153 
Q 591 3569 869 3861 
Q 1147 4153 1555 4311 
Q 1963 4469 2491 4469 
Q 3016 4469 3423 4309 
Q 3831 4150 4107 3856 
Q 4384 3563 4528 3147 
Q 4672 2731 4672 2222 
z
M 4063 2222 
Q 4063 2619 3961 2944 
Q 3859 3269 3661 3500 
Q 3463 3731 3169 3856 
Q 2875 3981 2491 3981 
Q 2097 3981 1800 3856 
Q 1503 3731 1304 3500 
Q 1106 3269 1007 2944 
Q 909 2619 909 2222 
Q 909 1825 1011 1495 
Q 1113 1166 1311 927 
Q 1509 688 1804 555 
Q 2100 422 2484 422 
Q 2897 422 3195 556 
Q 3494 691 3686 930 
Q 3878 1169 3970 1500 
Q 4063 1831 4063 2222 
z
" transform="scale(0.015625)"/>
      </defs>
      <use xlink:href="#LiberationSans-50"/>
      <use xlink:href="#LiberationSans-50" x="66.699219"/>
      <use xlink:href="#LiberationSans-4f" x="133.398438"/>
     </g>
    </g>
    <g id="patch_8">
     <path d="M 587.994375 45.853125 
L 617.994375 45.853125 
L 617.994375 35.353125 
L 587.994375 35.353125 
z
" style="fill: #add8e6; fill-opacity: 0.5"/>
    </g>
    <g id="line2d_37">
     <path d="M 587.994375 40.603125 
L 602.994375 40.603125 
L 617.994375 40.603125 
" style="fill: none; stroke: #1f77b4; stroke-width: 2.5; stroke-linecap: round"/>
    </g>
    <g id="text_3">
     <!-- CALF -->
     <g style="fill: #262626" transform="translate(629.994375 45.853125) scale(0.15 -0.15)">
      <defs>
       <path id="LiberationSans-43" d="M 2475 3981 
Q 2100 3981 1811 3856 
Q 1522 3731 1326 3500 
Q 1131 3269 1031 2944 
Q 931 2619 931 2222 
Q 931 1825 1039 1495 
Q 1147 1166 1348 928 
Q 1550 691 1842 559 
Q 2134 428 2500 428 
Q 2756 428 2967 495 
Q 3178 563 3348 684 
Q 3519 806 3653 973 
Q 3788 1141 3891 1344 
L 4378 1100 
Q 4259 853 4084 640 
Q 3909 428 3673 272 
Q 3438 116 3139 26 
Q 2841 -63 2472 -63 
Q 1938 -63 1536 107 
Q 1134 278 864 583 
Q 594 888 459 1306 
Q 325 1725 325 2222 
Q 325 2738 467 3153 
Q 609 3569 882 3861 
Q 1156 4153 1556 4311 
Q 1956 4469 2469 4469 
Q 3172 4469 3644 4194 
Q 4116 3919 4338 3378 
L 3772 3191 
Q 3709 3347 3603 3489 
Q 3497 3631 3337 3740 
Q 3178 3850 2964 3915 
Q 2750 3981 2475 3981 
z
" transform="scale(0.015625)"/>
       <path id="LiberationSans-41" d="M 3647 0 
L 3144 1288 
L 1138 1288 
L 631 0 
L 13 0 
L 1809 4403 
L 2488 4403 
L 4256 0 
L 3647 0 
z
M 2400 3206 
Q 2350 3331 2304 3459 
Q 2259 3588 2225 3692 
Q 2191 3797 2167 3867 
Q 2144 3938 2141 3953 
Q 2134 3938 2112 3866 
Q 2091 3794 2055 3687 
Q 2019 3581 1973 3453 
Q 1928 3325 1881 3200 
L 1319 1753 
L 2966 1753 
L 2400 3206 
z
" transform="scale(0.015625)"/>
       <path id="LiberationSans-4c" d="M 525 0 
L 525 4403 
L 1122 4403 
L 1122 488 
L 3347 488 
L 3347 0 
L 525 0 
z
" transform="scale(0.015625)"/>
       <path id="LiberationSans-46" d="M 1122 3916 
L 1122 2278 
L 3578 2278 
L 3578 1784 
L 1122 1784 
L 1122 0 
L 525 0 
L 525 4403 
L 3653 4403 
L 3653 3916 
L 1122 3916 
z
" transform="scale(0.015625)"/>
      </defs>
      <use xlink:href="#LiberationSans-43"/>
      <use xlink:href="#LiberationSans-41" x="72.216797"/>
      <use xlink:href="#LiberationSans-4c" x="138.916016"/>
      <use xlink:href="#LiberationSans-46" x="194.53125"/>
     </g>
    </g>
    <g id="patch_9">
     <path d="M 587.994375 67.335938 
L 617.994375 67.335938 
L 617.994375 56.835938 
L 587.994375 56.835938 
z
" style="fill: #90ee90; fill-opacity: 0.5"/>
    </g>
    <g id="line2d_38">
     <path d="M 587.994375 62.085938 
L 602.994375 62.085938 
L 617.994375 62.085938 
" style="fill: none; stroke: #2ca02c; stroke-width: 2.5; stroke-linecap: round"/>
    </g>
    <g id="text_4">
     <!-- SARSA_m -->
     <g style="fill: #262626" transform="translate(629.994375 67.335938) scale(0.15 -0.15)">
      <defs>
       <path id="LiberationSans-53" d="M 3975 1216 
Q 3975 938 3867 703 
Q 3759 469 3534 298 
Q 3309 128 2967 32 
Q 2625 -63 2156 -63 
Q 1334 -63 875 225 
Q 416 513 291 1056 
L 869 1172 
Q 913 1000 1003 859 
Q 1094 719 1248 617 
Q 1403 516 1631 459 
Q 1859 403 2178 403 
Q 2444 403 2666 448 
Q 2888 494 3047 587 
Q 3206 681 3295 829 
Q 3384 978 3384 1184 
Q 3384 1400 3286 1534 
Q 3188 1669 3009 1756 
Q 2831 1844 2584 1903 
Q 2338 1963 2038 2031 
Q 1853 2072 1667 2120 
Q 1481 2169 1311 2236 
Q 1141 2303 991 2393 
Q 841 2484 731 2611 
Q 622 2738 559 2905 
Q 497 3072 497 3291 
Q 497 3603 623 3826 
Q 750 4050 975 4194 
Q 1200 4338 1506 4403 
Q 1813 4469 2169 4469 
Q 2578 4469 2868 4405 
Q 3159 4341 3359 4212 
Q 3559 4084 3679 3895 
Q 3800 3706 3872 3456 
L 3284 3353 
Q 3241 3513 3158 3638 
Q 3075 3763 2940 3847 
Q 2806 3931 2614 3975 
Q 2422 4019 2163 4019 
Q 1856 4019 1648 3964 
Q 1441 3909 1314 3815 
Q 1188 3722 1133 3595 
Q 1078 3469 1078 3322 
Q 1078 3125 1176 2998 
Q 1275 2872 1444 2787 
Q 1613 2703 1834 2647 
Q 2056 2591 2306 2534 
Q 2509 2488 2711 2439 
Q 2913 2391 3097 2323 
Q 3281 2256 3442 2165 
Q 3603 2075 3722 1944 
Q 3841 1813 3908 1634 
Q 3975 1456 3975 1216 
z
" transform="scale(0.015625)"/>
       <path id="LiberationSans-52" d="M 3638 0 
L 2494 1828 
L 1122 1828 
L 1122 0 
L 525 0 
L 525 4403 
L 2597 4403 
Q 2972 4403 3261 4317 
Q 3550 4231 3747 4068 
Q 3944 3906 4047 3672 
Q 4150 3438 4150 3144 
Q 4150 2934 4089 2731 
Q 4028 2528 3897 2359 
Q 3766 2191 3562 2069 
Q 3359 1947 3075 1897 
L 4325 0 
L 3638 0 
z
M 3550 3138 
Q 3550 3338 3481 3484 
Q 3413 3631 3281 3729 
Q 3150 3828 2962 3876 
Q 2775 3925 2538 3925 
L 1122 3925 
L 1122 2300 
L 2563 2300 
Q 2819 2300 3006 2364 
Q 3194 2428 3314 2540 
Q 3434 2653 3492 2806 
Q 3550 2959 3550 3138 
z
" transform="scale(0.015625)"/>
       <path id="LiberationSans-5f" d="M -97 -1272 
L -97 -866 
L 3631 -866 
L 3631 -1272 
L -97 -1272 
z
" transform="scale(0.015625)"/>
       <path id="LiberationSans-6d" d="M 2400 0 
L 2400 2144 
Q 2400 2391 2369 2556 
Q 2338 2722 2264 2823 
Q 2191 2925 2072 2967 
Q 1953 3009 1781 3009 
Q 1603 3009 1459 2939 
Q 1316 2869 1214 2736 
Q 1113 2603 1058 2408 
Q 1003 2213 1003 1959 
L 1003 0 
L 444 0 
L 444 2659 
Q 444 2766 442 2883 
Q 441 3000 437 3104 
Q 434 3209 431 3284 
Q 428 3359 425 3381 
L 956 3381 
Q 959 3366 962 3297 
Q 966 3228 970 3139 
Q 975 3050 978 2958 
Q 981 2866 981 2803 
L 991 2803 
Q 1066 2950 1153 3069 
Q 1241 3188 1358 3270 
Q 1475 3353 1626 3398 
Q 1778 3444 1978 3444 
Q 2363 3444 2586 3291 
Q 2809 3138 2897 2803 
L 2906 2803 
Q 2981 2950 3075 3069 
Q 3169 3188 3294 3270 
Q 3419 3353 3575 3398 
Q 3731 3444 3931 3444 
Q 4188 3444 4373 3375 
Q 4559 3306 4678 3162 
Q 4797 3019 4853 2792 
Q 4909 2566 4909 2253 
L 4909 0 
L 4353 0 
L 4353 2144 
Q 4353 2391 4322 2556 
Q 4291 2722 4217 2823 
Q 4144 2925 4025 2967 
Q 3906 3009 3734 3009 
Q 3556 3009 3412 2942 
Q 3269 2875 3167 2744 
Q 3066 2613 3011 2416 
Q 2956 2219 2956 1959 
L 2956 0 
L 2400 0 
z
" transform="scale(0.015625)"/>
      </defs>
      <use xlink:href="#LiberationSans-53"/>
      <use xlink:href="#LiberationSans-41" x="66.699219"/>
      <use xlink:href="#LiberationSans-52" x="133.398438"/>
      <use xlink:href="#LiberationSans-53" x="205.615234"/>
      <use xlink:href="#LiberationSans-41" x="272.314453"/>
      <use xlink:href="#LiberationSans-5f" x="339.013672"/>
      <use xlink:href="#LiberationSans-6d" x="394.628906"/>
     </g>
    </g>
    <g id="line2d_39">
     <path d="M 587.994375 83.56875 
L 602.994375 83.56875 
L 617.994375 83.56875 
" style="fill: none; stroke: #ff7f0e; stroke-width: 2.5; stroke-linecap: round"/>
    </g>
    <g id="text_5">
     <!-- MPC-10 -->
     <g style="fill: #262626" transform="translate(629.994375 88.81875) scale(0.15 -0.15)">
      <defs>
       <path id="LiberationSans-4d" d="M 4269 0 
L 4269 2938 
Q 4269 3097 4272 3262 
Q 4275 3428 4281 3566 
Q 4288 3725 4297 3875 
Q 4253 3716 4206 3559 
Q 4166 3425 4117 3273 
Q 4069 3122 4022 3000 
L 2884 0 
L 2466 0 
L 1313 3000 
Q 1294 3047 1273 3109 
Q 1253 3172 1229 3242 
Q 1206 3313 1182 3386 
Q 1159 3459 1138 3531 
Q 1084 3697 1034 3875 
Q 1038 3700 1044 3528 
Q 1050 3381 1053 3220 
Q 1056 3059 1056 2938 
L 1056 0 
L 525 0 
L 525 4403 
L 1309 4403 
L 2481 1350 
Q 2503 1288 2534 1189 
Q 2566 1091 2594 987 
Q 2622 884 2645 792 
Q 2669 700 2678 650 
Q 2688 700 2713 794 
Q 2738 888 2770 991 
Q 2803 1094 2834 1191 
Q 2866 1288 2891 1350 
L 4041 4403 
L 4806 4403 
L 4806 0 
L 4269 0 
z
" transform="scale(0.015625)"/>
       <path id="LiberationSans-2d" d="M 284 1450 
L 284 1950 
L 1847 1950 
L 1847 1450 
L 284 1450 
z
" transform="scale(0.015625)"/>
      </defs>
      <use xlink:href="#LiberationSans-4d"/>
      <use xlink:href="#LiberationSans-50" x="83.300781"/>
      <use xlink:href="#LiberationSans-43" x="150"/>
      <use xlink:href="#LiberationSans-2d" x="222.216797"/>
      <use xlink:href="#LiberationSans-31" x="255.517578"/>
      <use xlink:href="#LiberationSans-30" x="311.132812"/>
     </g>
    </g>
    <g id="line2d_40">
     <path d="M 587.994375 105.051563 
L 602.994375 105.051563 
L 617.994375 105.051563 
" style="fill: none; stroke: #d62728; stroke-width: 2.5; stroke-linecap: round"/>
    </g>
    <g id="text_6">
     <!-- Nominal -->
     <g style="fill: #262626" transform="translate(629.994375 110.301563) scale(0.15 -0.15)">
      <defs>
       <path id="LiberationSans-4e" d="M 3381 0 
L 1025 3750 
Q 1031 3597 1041 3447 
Q 1047 3319 1051 3176 
Q 1056 3034 1056 2925 
L 1056 0 
L 525 0 
L 525 4403 
L 1219 4403 
L 3600 628 
Q 3591 781 3581 934 
Q 3575 1066 3569 1220 
Q 3563 1375 3563 1516 
L 3563 4403 
L 4100 4403 
L 4100 0 
L 3381 0 
z
" transform="scale(0.015625)"/>
       <path id="LiberationSans-6f" d="M 3291 1694 
Q 3291 806 2900 371 
Q 2509 -63 1766 -63 
Q 1413 -63 1134 43 
Q 856 150 664 369 
Q 472 588 370 917 
Q 269 1247 269 1694 
Q 269 3444 1784 3444 
Q 2178 3444 2464 3334 
Q 2750 3225 2933 3006 
Q 3116 2788 3203 2459 
Q 3291 2131 3291 1694 
z
M 2700 1694 
Q 2700 2088 2639 2344 
Q 2578 2600 2461 2753 
Q 2344 2906 2175 2967 
Q 2006 3028 1794 3028 
Q 1578 3028 1404 2964 
Q 1231 2900 1109 2745 
Q 988 2591 923 2334 
Q 859 2078 859 1694 
Q 859 1300 928 1042 
Q 997 784 1117 631 
Q 1238 478 1402 415 
Q 1566 353 1759 353 
Q 1975 353 2150 414 
Q 2325 475 2447 628 
Q 2569 781 2634 1040 
Q 2700 1300 2700 1694 
z
" transform="scale(0.015625)"/>
       <path id="LiberationSans-69" d="M 428 4100 
L 428 4638 
L 991 4638 
L 991 4100 
L 428 4100 
z
M 428 0 
L 428 3381 
L 991 3381 
L 991 0 
L 428 0 
z
" transform="scale(0.015625)"/>
       <path id="LiberationSans-6e" d="M 2578 0 
L 2578 2144 
Q 2578 2391 2542 2556 
Q 2506 2722 2425 2823 
Q 2344 2925 2211 2967 
Q 2078 3009 1881 3009 
Q 1681 3009 1520 2939 
Q 1359 2869 1245 2736 
Q 1131 2603 1068 2408 
Q 1006 2213 1006 1959 
L 1006 0 
L 444 0 
L 444 2659 
Q 444 2766 442 2883 
Q 441 3000 437 3104 
Q 434 3209 431 3284 
Q 428 3359 425 3381 
L 956 3381 
Q 959 3366 962 3297 
Q 966 3228 970 3139 
Q 975 3050 978 2958 
Q 981 2866 981 2803 
L 991 2803 
Q 1072 2950 1169 3069 
Q 1266 3188 1394 3270 
Q 1522 3353 1687 3398 
Q 1853 3444 2072 3444 
Q 2353 3444 2556 3375 
Q 2759 3306 2890 3162 
Q 3022 3019 3083 2792 
Q 3144 2566 3144 2253 
L 3144 0 
L 2578 0 
z
" transform="scale(0.015625)"/>
       <path id="LiberationSans-61" d="M 1294 -63 
Q 784 -63 528 206 
Q 272 475 272 944 
Q 272 1278 398 1492 
Q 525 1706 729 1828 
Q 934 1950 1196 1997 
Q 1459 2044 1731 2050 
L 2491 2063 
L 2491 2247 
Q 2491 2456 2447 2603 
Q 2403 2750 2312 2840 
Q 2222 2931 2086 2973 
Q 1950 3016 1766 3016 
Q 1603 3016 1472 2992 
Q 1341 2969 1244 2908 
Q 1147 2847 1087 2742 
Q 1028 2638 1009 2478 
L 422 2531 
Q 453 2731 540 2898 
Q 628 3066 789 3187 
Q 950 3309 1192 3376 
Q 1434 3444 1778 3444 
Q 2416 3444 2737 3151 
Q 3059 2859 3059 2306 
L 3059 850 
Q 3059 600 3125 473 
Q 3191 347 3375 347 
Q 3422 347 3469 353 
Q 3516 359 3559 369 
L 3559 19 
Q 3453 -6 3348 -18 
Q 3244 -31 3125 -31 
Q 2966 -31 2852 11 
Q 2738 53 2666 139 
Q 2594 225 2556 351 
Q 2519 478 2509 647 
L 2491 647 
Q 2400 484 2292 353 
Q 2184 222 2040 130 
Q 1897 38 1714 -12 
Q 1531 -63 1294 -63 
z
M 1422 359 
Q 1691 359 1892 457 
Q 2094 556 2226 709 
Q 2359 863 2425 1044 
Q 2491 1225 2491 1391 
L 2491 1669 
L 1875 1656 
Q 1669 1653 1483 1626 
Q 1297 1600 1156 1522 
Q 1016 1444 933 1303 
Q 850 1163 850 934 
Q 850 659 998 509 
Q 1147 359 1422 359 
z
" transform="scale(0.015625)"/>
       <path id="LiberationSans-6c" d="M 431 0 
L 431 4638 
L 994 4638 
L 994 0 
L 431 0 
z
" transform="scale(0.015625)"/>
      </defs>
      <use xlink:href="#LiberationSans-4e"/>
      <use xlink:href="#LiberationSans-6f" x="72.216797"/>
      <use xlink:href="#LiberationSans-6d" x="127.832031"/>
      <use xlink:href="#LiberationSans-69" x="211.132812"/>
      <use xlink:href="#LiberationSans-6e" x="233.349609"/>
      <use xlink:href="#LiberationSans-61" x="288.964844"/>
      <use xlink:href="#LiberationSans-6c" x="344.580078"/>
     </g>
    </g>
   </g>
  </g>
  <g id="axes_2">
   <g id="patch_10">
    <path d="M 62.45 365.46 
L 715.185 365.46 
L 715.185 194.13 
L 62.45 194.13 
z
" style="fill: #ffffff"/>
   </g>
   <g id="matplotlib.axis_3">
    <g id="xtick_10">
     <g id="line2d_41">
      <path d="M 62.45 365.46 
L 62.45 194.13 
" clip-path="url(#pce9a54358c)" style="fill: none; stroke: #cccccc; stroke-width: 0.8; stroke-linecap: round"/>
     </g>
     <g id="line2d_42"/>
     <g id="text_7">
      <!-- 0 -->
      <g style="fill: #262626" transform="translate(58.279297 379.830313) scale(0.15 -0.15)">
       <use xlink:href="#LiberationSans-30"/>
      </g>
     </g>
    </g>
    <g id="xtick_11">
     <g id="line2d_43">
      <path d="M 144.041875 365.46 
L 144.041875 194.13 
" clip-path="url(#pce9a54358c)" style="fill: none; stroke: #cccccc; stroke-width: 0.8; stroke-linecap: round"/>
     </g>
     <g id="line2d_44"/>
     <g id="text_8">
      <!-- 5 -->
      <g style="fill: #262626" transform="translate(139.871172 379.830313) scale(0.15 -0.15)">
       <defs>
        <path id="LiberationSans-35" d="M 3291 1434 
Q 3291 1103 3191 828 
Q 3091 553 2894 354 
Q 2697 156 2405 46 
Q 2113 -63 1728 -63 
Q 1381 -63 1123 18 
Q 866 100 687 242 
Q 509 384 404 575 
Q 300 766 256 984 
L 825 1050 
Q 859 925 921 808 
Q 984 691 1092 598 
Q 1200 506 1358 451 
Q 1516 397 1741 397 
Q 1959 397 2137 464 
Q 2316 531 2442 662 
Q 2569 794 2637 984 
Q 2706 1175 2706 1422 
Q 2706 1625 2640 1795 
Q 2575 1966 2453 2089 
Q 2331 2213 2154 2281 
Q 1978 2350 1753 2350 
Q 1613 2350 1494 2325 
Q 1375 2300 1273 2256 
Q 1172 2213 1089 2155 
Q 1006 2097 934 2034 
L 384 2034 
L 531 4403 
L 3034 4403 
L 3034 3925 
L 1044 3925 
L 959 2528 
Q 1109 2644 1334 2726 
Q 1559 2809 1869 2809 
Q 2197 2809 2459 2709 
Q 2722 2609 2906 2426 
Q 3091 2244 3191 1991 
Q 3291 1738 3291 1434 
z
" transform="scale(0.015625)"/>
       </defs>
       <use xlink:href="#LiberationSans-35"/>
      </g>
     </g>
    </g>
    <g id="xtick_12">
     <g id="line2d_45">
      <path d="M 225.63375 365.46 
L 225.63375 194.13 
" clip-path="url(#pce9a54358c)" style="fill: none; stroke: #cccccc; stroke-width: 0.8; stroke-linecap: round"/>
     </g>
     <g id="line2d_46"/>
     <g id="text_9">
      <!-- 10 -->
      <g style="fill: #262626" transform="translate(217.292344 379.830313) scale(0.15 -0.15)">
       <use xlink:href="#LiberationSans-31"/>
       <use xlink:href="#LiberationSans-30" x="55.615234"/>
      </g>
     </g>
    </g>
    <g id="xtick_13">
     <g id="line2d_47">
      <path d="M 307.225625 365.46 
L 307.225625 194.13 
" clip-path="url(#pce9a54358c)" style="fill: none; stroke: #cccccc; stroke-width: 0.8; stroke-linecap: round"/>
     </g>
     <g id="line2d_48"/>
     <g id="text_10">
      <!-- 15 -->
      <g style="fill: #262626" transform="translate(298.884219 379.830313) scale(0.15 -0.15)">
       <use xlink:href="#LiberationSans-31"/>
       <use xlink:href="#LiberationSans-35" x="55.615234"/>
      </g>
     </g>
    </g>
    <g id="xtick_14">
     <g id="line2d_49">
      <path d="M 388.8175 365.46 
L 388.8175 194.13 
" clip-path="url(#pce9a54358c)" style="fill: none; stroke: #cccccc; stroke-width: 0.8; stroke-linecap: round"/>
     </g>
     <g id="line2d_50"/>
     <g id="text_11">
      <!-- 20 -->
      <g style="fill: #262626" transform="translate(380.476094 379.830313) scale(0.15 -0.15)">
       <defs>
        <path id="LiberationSans-32" d="M 322 0 
L 322 397 
Q 481 763 711 1042 
Q 941 1322 1194 1548 
Q 1447 1775 1695 1969 
Q 1944 2163 2144 2356 
Q 2344 2550 2467 2762 
Q 2591 2975 2591 3244 
Q 2591 3431 2534 3573 
Q 2478 3716 2372 3812 
Q 2266 3909 2117 3957 
Q 1969 4006 1788 4006 
Q 1619 4006 1470 3959 
Q 1322 3913 1206 3819 
Q 1091 3725 1017 3586 
Q 944 3447 922 3263 
L 347 3316 
Q 375 3553 478 3762 
Q 581 3972 762 4130 
Q 944 4288 1198 4378 
Q 1453 4469 1788 4469 
Q 2116 4469 2372 4391 
Q 2628 4313 2804 4159 
Q 2981 4006 3075 3781 
Q 3169 3556 3169 3263 
Q 3169 3041 3089 2841 
Q 3009 2641 2876 2459 
Q 2744 2278 2569 2109 
Q 2394 1941 2203 1780 
Q 2013 1619 1819 1461 
Q 1625 1303 1454 1143 
Q 1284 984 1150 820 
Q 1016 656 941 478 
L 3238 478 
L 3238 0 
L 322 0 
z
" transform="scale(0.015625)"/>
       </defs>
       <use xlink:href="#LiberationSans-32"/>
       <use xlink:href="#LiberationSans-30" x="55.615234"/>
      </g>
     </g>
    </g>
    <g id="xtick_15">
     <g id="line2d_51">
      <path d="M 470.409375 365.46 
L 470.409375 194.13 
" clip-path="url(#pce9a54358c)" style="fill: none; stroke: #cccccc; stroke-width: 0.8; stroke-linecap: round"/>
     </g>
     <g id="line2d_52"/>
     <g id="text_12">
      <!-- 25 -->
      <g style="fill: #262626" transform="translate(462.067969 379.830313) scale(0.15 -0.15)">
       <use xlink:href="#LiberationSans-32"/>
       <use xlink:href="#LiberationSans-35" x="55.615234"/>
      </g>
     </g>
    </g>
    <g id="xtick_16">
     <g id="line2d_53">
      <path d="M 552.00125 365.46 
L 552.00125 194.13 
" clip-path="url(#pce9a54358c)" style="fill: none; stroke: #cccccc; stroke-width: 0.8; stroke-linecap: round"/>
     </g>
     <g id="line2d_54"/>
     <g id="text_13">
      <!-- 30 -->
      <g style="fill: #262626" transform="translate(543.659844 379.830313) scale(0.15 -0.15)">
       <defs>
        <path id="LiberationSans-33" d="M 3278 1216 
Q 3278 913 3179 675 
Q 3081 438 2892 273 
Q 2703 109 2423 23 
Q 2144 -63 1784 -63 
Q 1375 -63 1095 39 
Q 816 141 634 308 
Q 453 475 362 689 
Q 272 903 244 1131 
L 825 1184 
Q 850 1009 917 865 
Q 984 722 1100 619 
Q 1216 516 1384 459 
Q 1553 403 1784 403 
Q 2209 403 2451 612 
Q 2694 822 2694 1234 
Q 2694 1478 2586 1626 
Q 2478 1775 2317 1858 
Q 2156 1941 1967 1969 
Q 1778 1997 1619 1997 
L 1300 1997 
L 1300 2484 
L 1606 2484 
Q 1766 2484 1937 2517 
Q 2109 2550 2251 2636 
Q 2394 2722 2486 2869 
Q 2578 3016 2578 3244 
Q 2578 3597 2370 3801 
Q 2163 4006 1753 4006 
Q 1381 4006 1151 3815 
Q 922 3625 884 3278 
L 319 3322 
Q 353 3613 478 3828 
Q 603 4044 795 4186 
Q 988 4328 1234 4398 
Q 1481 4469 1759 4469 
Q 2128 4469 2393 4376 
Q 2659 4284 2828 4126 
Q 2997 3969 3076 3756 
Q 3156 3544 3156 3303 
Q 3156 3109 3103 2940 
Q 3050 2772 2937 2637 
Q 2825 2503 2651 2406 
Q 2478 2309 2234 2259 
L 2234 2247 
Q 2500 2219 2697 2126 
Q 2894 2034 3022 1896 
Q 3150 1759 3214 1584 
Q 3278 1409 3278 1216 
z
" transform="scale(0.015625)"/>
       </defs>
       <use xlink:href="#LiberationSans-33"/>
       <use xlink:href="#LiberationSans-30" x="55.615234"/>
      </g>
     </g>
    </g>
    <g id="xtick_17">
     <g id="line2d_55">
      <path d="M 633.593125 365.46 
L 633.593125 194.13 
" clip-path="url(#pce9a54358c)" style="fill: none; stroke: #cccccc; stroke-width: 0.8; stroke-linecap: round"/>
     </g>
     <g id="line2d_56"/>
     <g id="text_14">
      <!-- 35 -->
      <g style="fill: #262626" transform="translate(625.251719 379.830313) scale(0.15 -0.15)">
       <use xlink:href="#LiberationSans-33"/>
       <use xlink:href="#LiberationSans-35" x="55.615234"/>
      </g>
     </g>
    </g>
    <g id="xtick_18">
     <g id="line2d_57">
      <path d="M 715.185 365.46 
L 715.185 194.13 
" clip-path="url(#pce9a54358c)" style="fill: none; stroke: #cccccc; stroke-width: 0.8; stroke-linecap: round"/>
     </g>
     <g id="line2d_58"/>
     <g id="text_15">
      <!-- 40 -->
      <g style="fill: #262626" transform="translate(706.843594 379.830313) scale(0.15 -0.15)">
       <use xlink:href="#LiberationSans-34"/>
       <use xlink:href="#LiberationSans-30" x="55.615234"/>
      </g>
     </g>
    </g>
    <g id="text_16">
     <!-- Epochs -->
     <g style="fill: #262626" transform="translate(347.126094 405.06) scale(0.25 -0.25)">
      <defs>
       <path id="LiberationSans-45" d="M 525 0 
L 525 4403 
L 3866 4403 
L 3866 3916 
L 1122 3916 
L 1122 2503 
L 3678 2503 
L 3678 2022 
L 1122 2022 
L 1122 488 
L 3994 488 
L 3994 0 
L 525 0 
z
" transform="scale(0.015625)"/>
       <path id="LiberationSans-70" d="M 3291 1706 
Q 3291 1322 3228 997 
Q 3166 672 3020 437 
Q 2875 203 2636 70 
Q 2397 -63 2047 -63 
Q 1684 -63 1412 75 
Q 1141 213 997 525 
L 981 525 
Q 984 519 986 469 
Q 988 419 989 344 
Q 991 269 992 176 
Q 994 84 994 -6 
L 994 -1328 
L 431 -1328 
L 431 2691 
Q 431 2813 429 2925 
Q 428 3038 425 3130 
Q 422 3222 419 3287 
Q 416 3353 413 3381 
L 956 3381 
Q 959 3372 964 3315 
Q 969 3259 973 3179 
Q 978 3100 983 3009 
Q 988 2919 988 2838 
L 1000 2838 
Q 1078 3000 1178 3114 
Q 1278 3228 1406 3301 
Q 1534 3375 1692 3408 
Q 1850 3441 2047 3441 
Q 2397 3441 2636 3316 
Q 2875 3191 3020 2964 
Q 3166 2738 3228 2417 
Q 3291 2097 3291 1706 
z
M 2700 1694 
Q 2700 2006 2662 2250 
Q 2625 2494 2533 2662 
Q 2441 2831 2287 2918 
Q 2134 3006 1903 3006 
Q 1716 3006 1550 2953 
Q 1384 2900 1261 2750 
Q 1138 2600 1066 2336 
Q 994 2072 994 1650 
Q 994 1291 1053 1042 
Q 1113 794 1227 641 
Q 1341 488 1509 420 
Q 1678 353 1897 353 
Q 2131 353 2286 443 
Q 2441 534 2533 706 
Q 2625 878 2662 1126 
Q 2700 1375 2700 1694 
z
" transform="scale(0.015625)"/>
       <path id="LiberationSans-63" d="M 859 1706 
Q 859 1416 901 1172 
Q 944 928 1044 751 
Q 1144 575 1308 478 
Q 1472 381 1713 381 
Q 2013 381 2214 543 
Q 2416 706 2463 1044 
L 3031 1006 
Q 3003 797 2909 603 
Q 2816 409 2655 262 
Q 2494 116 2262 26 
Q 2031 -63 1728 -63 
Q 1331 -63 1053 71 
Q 775 206 601 442 
Q 428 678 350 998 
Q 272 1319 272 1694 
Q 272 2034 328 2295 
Q 384 2556 486 2751 
Q 588 2947 725 3080 
Q 863 3213 1023 3292 
Q 1184 3372 1362 3408 
Q 1541 3444 1722 3444 
Q 2006 3444 2228 3366 
Q 2450 3288 2611 3152 
Q 2772 3016 2872 2831 
Q 2972 2647 3013 2434 
L 2434 2391 
Q 2391 2672 2212 2837 
Q 2034 3003 1706 3003 
Q 1466 3003 1305 2923 
Q 1144 2844 1044 2683 
Q 944 2522 901 2278 
Q 859 2034 859 1706 
z
" transform="scale(0.015625)"/>
       <path id="LiberationSans-68" d="M 991 2803 
Q 1084 2975 1193 3095 
Q 1303 3216 1434 3294 
Q 1566 3372 1722 3408 
Q 1878 3444 2072 3444 
Q 2397 3444 2605 3356 
Q 2813 3269 2933 3111 
Q 3053 2953 3098 2734 
Q 3144 2516 3144 2253 
L 3144 0 
L 2578 0 
L 2578 2144 
Q 2578 2359 2551 2521 
Q 2525 2684 2450 2792 
Q 2375 2900 2237 2954 
Q 2100 3009 1881 3009 
Q 1681 3009 1520 2937 
Q 1359 2866 1245 2734 
Q 1131 2603 1068 2415 
Q 1006 2228 1006 1994 
L 1006 0 
L 444 0 
L 444 4638 
L 1006 4638 
L 1006 3431 
Q 1006 3328 1003 3225 
Q 1000 3122 995 3034 
Q 991 2947 987 2886 
Q 984 2825 981 2803 
L 991 2803 
z
" transform="scale(0.015625)"/>
       <path id="LiberationSans-73" d="M 2969 934 
Q 2969 697 2876 511 
Q 2784 325 2609 198 
Q 2434 72 2179 4 
Q 1925 -63 1597 -63 
Q 1303 -63 1067 -17 
Q 831 28 653 128 
Q 475 228 354 392 
Q 234 556 178 794 
L 675 891 
Q 747 619 972 492 
Q 1197 366 1597 366 
Q 1778 366 1929 391 
Q 2081 416 2190 477 
Q 2300 538 2361 639 
Q 2422 741 2422 891 
Q 2422 1044 2350 1142 
Q 2278 1241 2150 1306 
Q 2022 1372 1839 1420 
Q 1656 1469 1438 1528 
Q 1234 1581 1034 1647 
Q 834 1713 673 1820 
Q 513 1928 413 2087 
Q 313 2247 313 2488 
Q 313 2950 642 3192 
Q 972 3434 1603 3434 
Q 2163 3434 2492 3237 
Q 2822 3041 2909 2606 
L 2403 2544 
Q 2375 2675 2300 2764 
Q 2225 2853 2119 2908 
Q 2013 2963 1880 2986 
Q 1747 3009 1603 3009 
Q 1222 3009 1040 2893 
Q 859 2778 859 2544 
Q 859 2406 926 2317 
Q 994 2228 1114 2167 
Q 1234 2106 1403 2061 
Q 1572 2016 1775 1966 
Q 1909 1931 2050 1892 
Q 2191 1853 2323 1798 
Q 2456 1744 2573 1670 
Q 2691 1597 2778 1494 
Q 2866 1391 2917 1253 
Q 2969 1116 2969 934 
z
" transform="scale(0.015625)"/>
      </defs>
      <use xlink:href="#LiberationSans-45"/>
      <use xlink:href="#LiberationSans-70" x="66.699219"/>
      <use xlink:href="#LiberationSans-6f" x="122.314453"/>
      <use xlink:href="#LiberationSans-63" x="177.929688"/>
      <use xlink:href="#LiberationSans-68" x="227.929688"/>
      <use xlink:href="#LiberationSans-73" x="283.544922"/>
     </g>
    </g>
   </g>
   <g id="matplotlib.axis_4">
    <g id="ytick_11">
     <g id="line2d_59">
      <path d="M 62.45 365.46 
L 715.185 365.46 
" clip-path="url(#pce9a54358c)" style="fill: none; stroke: #cccccc; stroke-width: 0.8; stroke-linecap: round"/>
     </g>
     <g id="line2d_60"/>
     <g id="text_17">
      <!-- 900 -->
      <g style="fill: #262626" transform="translate(33.925781 370.895156) scale(0.15 -0.15)">
       <defs>
        <path id="LiberationSans-39" d="M 3256 2291 
Q 3256 1703 3145 1261 
Q 3034 819 2828 525 
Q 2622 231 2326 84 
Q 2031 -63 1663 -63 
Q 1409 -63 1206 -11 
Q 1003 41 843 150 
Q 684 259 571 434 
Q 459 609 391 856 
L 928 941 
Q 1016 656 1202 523 
Q 1388 391 1672 391 
Q 1900 391 2089 498 
Q 2278 606 2411 822 
Q 2544 1038 2619 1363 
Q 2694 1688 2700 2125 
Q 2634 1978 2520 1862 
Q 2406 1747 2261 1667 
Q 2116 1588 1947 1545 
Q 1778 1503 1606 1503 
Q 1306 1503 1064 1611 
Q 822 1719 653 1912 
Q 484 2106 392 2379 
Q 300 2653 300 2988 
Q 300 3328 398 3603 
Q 497 3878 684 4070 
Q 872 4263 1145 4366 
Q 1419 4469 1766 4469 
Q 2500 4469 2878 3925 
Q 3256 3381 3256 2291 
z
M 2644 2834 
Q 2644 3078 2586 3293 
Q 2528 3509 2414 3668 
Q 2300 3828 2133 3920 
Q 1966 4013 1747 4013 
Q 1544 4013 1381 3941 
Q 1219 3869 1106 3736 
Q 994 3603 933 3412 
Q 872 3222 872 2988 
Q 872 2766 926 2575 
Q 981 2384 1090 2245 
Q 1200 2106 1362 2026 
Q 1525 1947 1741 1947 
Q 1897 1947 2058 2000 
Q 2219 2053 2348 2162 
Q 2478 2272 2561 2439 
Q 2644 2606 2644 2834 
z
" transform="scale(0.015625)"/>
       </defs>
       <use xlink:href="#LiberationSans-39"/>
       <use xlink:href="#LiberationSans-30" x="55.615234"/>
       <use xlink:href="#LiberationSans-30" x="111.230469"/>
      </g>
     </g>
    </g>
    <g id="ytick_12">
     <g id="line2d_61">
      <path d="M 62.45 308.35 
L 715.185 308.35 
" clip-path="url(#pce9a54358c)" style="fill: none; stroke: #cccccc; stroke-width: 0.8; stroke-linecap: round"/>
     </g>
     <g id="line2d_62"/>
     <g id="text_18">
      <!-- 1000 -->
      <g style="fill: #262626" transform="translate(25.584375 313.785156) scale(0.15 -0.15)">
       <use xlink:href="#LiberationSans-31"/>
       <use xlink:href="#LiberationSans-30" x="55.615234"/>
       <use xlink:href="#LiberationSans-30" x="111.230469"/>
       <use xlink:href="#LiberationSans-30" x="166.845703"/>
      </g>
     </g>
    </g>
    <g id="ytick_13">
     <g id="line2d_63">
      <path d="M 62.45 251.24 
L 715.185 251.24 
" clip-path="url(#pce9a54358c)" style="fill: none; stroke: #cccccc; stroke-width: 0.8; stroke-linecap: round"/>
     </g>
     <g id="line2d_64"/>
     <g id="text_19">
      <!-- 1100 -->
      <g style="fill: #262626" transform="translate(25.584375 256.675156) scale(0.15 -0.15)">
       <use xlink:href="#LiberationSans-31"/>
       <use xlink:href="#LiberationSans-31" x="55.615234"/>
       <use xlink:href="#LiberationSans-30" x="111.230469"/>
       <use xlink:href="#LiberationSans-30" x="166.845703"/>
      </g>
     </g>
    </g>
    <g id="ytick_14">
     <g id="line2d_65">
      <path d="M 62.45 194.13 
L 715.185 194.13 
" clip-path="url(#pce9a54358c)" style="fill: none; stroke: #cccccc; stroke-width: 0.8; stroke-linecap: round"/>
     </g>
     <g id="line2d_66"/>
     <g id="text_20">
      <!-- 1200 -->
      <g style="fill: #262626" transform="translate(25.584375 199.565156) scale(0.15 -0.15)">
       <use xlink:href="#LiberationSans-31"/>
       <use xlink:href="#LiberationSans-32" x="55.615234"/>
       <use xlink:href="#LiberationSans-30" x="111.230469"/>
       <use xlink:href="#LiberationSans-30" x="166.845703"/>
      </g>
     </g>
    </g>
   </g>
   <g id="PolyCollection_4">
    <path d="M 78.768375 -4412.529121 
L 78.768375 -5259.632844 
L 120.191942 -4632.080303 
L 161.61551 -4447.367357 
L 203.039077 -4381.362289 
L 244.462644 -4387.183661 
L 285.886212 -4387.092251 
L 327.309779 -4387.085692 
L 368.733346 -4387.085858 
L 410.156913 -4387.085865 
L 451.580481 -4387.085865 
L 493.004048 -4387.085865 
L 534.427615 -4387.085865 
L 575.851183 -4387.085865 
L 617.27475 -4387.085865 
L 658.698317 -4387.085865 
L 700.121885 -4387.085865 
L 741.545452 -4387.085865 
L 782.969019 -4387.085865 
L 824.392587 -4387.085865 
L 865.816154 -4387.085865 
L 907.239721 -4387.085865 
L 948.663288 -4387.085865 
L 990.086856 -4387.085865 
L 1031.510423 -4387.085865 
L 1072.93399 -4387.085865 
L 1114.357558 -4387.085865 
L 1155.781125 -4387.085865 
L 1197.204692 -4387.085865 
L 1238.62826 -4387.085865 
L 1280.051827 -4387.085865 
L 1321.475394 -4387.085865 
L 1362.898962 -4387.085865 
L 1404.322529 -4387.085865 
L 1445.746096 -4387.085865 
L 1487.169663 -4387.085865 
L 1528.593231 -4387.085865 
L 1570.016798 -4387.085865 
L 1611.440365 -4387.085865 
L 1652.863933 -4387.085865 
L 1694.2875 -4387.085865 
L 1694.2875 -890.570309 
L 1694.2875 -890.570309 
L 1652.863933 -890.570072 
L 1611.440365 -890.572004 
L 1570.016798 -890.744724 
L 1528.593231 -887.928896 
L 1487.169663 -980.270696 
L 1445.746096 -974.519437 
L 1404.322529 -974.701172 
L 1362.898962 -973.279753 
L 1321.475394 -953.384898 
L 1280.051827 -1256.878338 
L 1238.62826 -1264.954988 
L 1197.204692 -1305.374788 
L 1155.781125 -1505.298024 
L 1114.357558 -1554.571853 
L 1072.93399 -1554.774776 
L 1031.510423 -1561.475786 
L 990.086856 -1806.156254 
L 948.663288 -1790.118241 
L 907.239721 -1788.974406 
L 865.816154 -1789.17038 
L 824.392587 -1782.579536 
L 782.969019 -1888.392106 
L 741.545452 -1885.210643 
L 700.121885 -1885.682759 
L 658.698317 -1848.15574 
L 617.27475 -2277.346126 
L 575.851183 -2432.416277 
L 534.427615 -3133.469357 
L 493.004048 -3278.789622 
L 451.580481 -3374.785767 
L 410.156913 -3382.670644 
L 368.733346 -3386.225724 
L 327.309779 -3386.164399 
L 285.886212 -3385.40298 
L 244.462644 -3374.836245 
L 203.039077 -3581.232973 
L 161.61551 -3678.870727 
L 120.191942 -3910.113159 
L 78.768375 -4412.529121 
z
" clip-path="url(#pce9a54358c)" style="fill: #dda0dd; fill-opacity: 0.5"/>
   </g>
   <g id="PolyCollection_5">
    <path d="M 78.768375 255.474451 
L 78.768375 -1269.858474 
L 95.08675 -12.824437 
L 111.405125 -12.824437 
L 127.7235 -12.824437 
L 144.041875 -12.824437 
L 160.36025 -12.824437 
L 176.678625 -12.824437 
L 192.997 -12.824437 
L 209.315375 -12.824437 
L 225.63375 8.068225 
L 241.952125 8.068225 
L 258.2705 8.068225 
L 274.588875 8.068225 
L 290.90725 8.068225 
L 307.225625 8.068225 
L 323.544 8.068225 
L 339.862375 8.068225 
L 356.18075 8.068225 
L 372.499125 8.068225 
L 388.8175 8.068225 
L 405.135875 8.068225 
L 421.45425 8.068225 
L 437.772625 8.068225 
L 454.091 8.068225 
L 470.409375 8.068225 
L 486.72775 8.068225 
L 503.046125 8.068225 
L 519.3645 8.068225 
L 535.682875 8.068225 
L 552.00125 8.068225 
L 568.319625 8.068225 
L 584.638 8.068225 
L 600.956375 8.068225 
L 617.27475 8.068225 
L 633.593125 8.068225 
L 649.9115 40.829331 
L 666.229875 40.829331 
L 682.54825 40.829331 
L 698.866625 40.829331 
L 715.185 40.829331 
L 715.185 315.876492 
L 715.185 315.876492 
L 698.866625 315.876492 
L 682.54825 307.225403 
L 666.229875 307.225403 
L 649.9115 307.225403 
L 633.593125 307.225403 
L 617.27475 307.225403 
L 600.956375 307.225403 
L 584.638 307.225403 
L 568.319625 307.225403 
L 552.00125 307.225403 
L 535.682875 307.225403 
L 519.3645 307.225403 
L 503.046125 307.225403 
L 486.72775 307.225403 
L 470.409375 307.225403 
L 454.091 307.225403 
L 437.772625 307.225403 
L 421.45425 307.225403 
L 405.135875 307.225403 
L 388.8175 299.152635 
L 372.499125 299.152635 
L 356.18075 299.152635 
L 339.862375 299.152635 
L 323.544 299.152635 
L 307.225625 299.152635 
L 290.90725 299.152635 
L 274.588875 299.152635 
L 258.2705 299.152635 
L 241.952125 299.152635 
L 225.63375 299.152635 
L 209.315375 299.152635 
L 192.997 293.624681 
L 176.678625 293.624681 
L 160.36025 291.712521 
L 144.041875 291.712521 
L 127.7235 291.712521 
L 111.405125 277.306215 
L 95.08675 270.062985 
L 78.768375 255.474451 
z
" clip-path="url(#pce9a54358c)" style="fill: #add8e6; fill-opacity: 0.5"/>
   </g>
   <g id="PolyCollection_6">
    <path d="M 78.768375 -1293.686462 
L 78.768375 -10843.121997 
L 99.270949 -8822.874907 
L 119.773522 -8932.254908 
L 140.276096 -8907.327545 
L 160.77867 -8909.984823 
L 181.281244 -8869.672975 
L 201.783817 -9163.091387 
L 222.286391 -6889.360507 
L 242.788965 -6495.197496 
L 263.291538 -6457.560775 
L 283.794112 -6480.125006 
L 304.296686 -6475.373134 
L 324.79926 -6475.802576 
L 345.301833 -6475.866527 
L 365.804407 -6475.835252 
L 386.306981 -6475.841243 
L 406.809554 -6475.840385 
L 427.312128 -6475.848256 
L 447.814702 -6475.802091 
L 468.317276 -6475.92697 
L 488.819849 -6476.319853 
L 509.322423 -6470.090988 
L 529.824997 -6503.829916 
L 550.327571 -6239.50437 
L 570.830144 -6216.922006 
L 591.332718 -6317.398548 
L 611.835292 -5406.832365 
L 632.337865 -4542.486955 
L 652.840439 -4538.708325 
L 673.343013 -4535.501981 
L 693.845587 -4536.474463 
L 714.34816 -4536.329182 
L 734.850734 -4536.330937 
L 755.353308 -4536.335618 
L 775.855881 -4536.334311 
L 796.358455 -4536.334492 
L 816.861029 -4536.334493 
L 837.363603 -4536.334487 
L 857.866176 -4536.334489 
L 878.36875 -4536.334488 
L 878.36875 102.608704 
L 878.36875 102.608704 
L 857.866176 102.608698 
L 837.363603 102.608733 
L 816.861029 102.608607 
L 796.358455 102.608639 
L 775.855881 102.611985 
L 755.353308 102.587732 
L 734.850734 102.674612 
L 714.34816 102.707168 
L 693.845587 100.011185 
L 673.343013 118.057611 
L 652.840439 -33.089083 
L 632.337865 -140.615959 
L 611.835292 -138.376969 
L 591.332718 -139.473979 
L 570.830144 -139.257627 
L 550.327571 -139.274326 
L 529.824997 -139.277931 
L 509.322423 -139.276418 
L 488.819849 -139.276698 
L 468.317276 -139.27668 
L 447.814702 -139.276674 
L 427.312128 -139.276677 
L 406.809554 -139.276675 
L 386.306981 -139.276664 
L 365.804407 -139.276797 
L 345.301833 -139.276126 
L 324.79926 -139.277495 
L 304.296686 -139.286687 
L 283.794112 -139.184976 
L 263.291538 -139.667949 
L 242.788965 -138.862359 
L 222.286391 -130.875124 
L 201.783817 -227.604505 
L 181.281244 -344.752144 
L 160.77867 -333.370897 
L 140.276096 -343.817542 
L 119.773522 -252.327225 
L 99.270949 -1028.721247 
L 78.768375 -1293.686462 
z
" clip-path="url(#pce9a54358c)" style="fill: #90ee90; fill-opacity: 0.5"/>
   </g>
   <g id="line2d_67">
    <path clip-path="url(#pce9a54358c)" style="fill: none; stroke: #9467bd; stroke-width: 2.5; stroke-linecap: round"/>
   </g>
   <g id="line2d_68">
    <path d="M 78.768375 242.629897 
L 95.08675 248.912971 
L 111.405125 255.311778 
L 127.7235 260.220139 
L 144.041875 263.476631 
L 160.36025 265.474398 
L 176.678625 266.691709 
L 192.997 267.492578 
L 209.315375 268.084432 
L 225.63375 268.552452 
L 241.952125 268.917734 
L 258.2705 269.188404 
L 274.588875 269.389652 
L 290.90725 269.570499 
L 307.225625 269.792541 
L 323.544 270.109554 
L 339.862375 270.547403 
L 356.18075 271.091992 
L 372.499125 271.689776 
L 388.8175 272.261539 
L 405.135875 272.726306 
L 421.45425 273.029246 
L 437.772625 273.165671 
L 454.091 273.193117 
L 470.409375 273.225322 
L 486.72775 273.405514 
L 503.046125 273.861556 
L 519.3645 274.651624 
L 535.682875 275.715119 
L 552.00125 276.848306 
L 568.319625 277.725865 
L 584.638 277.986048 
L 600.956375 277.385775 
L 617.27475 276.009598 
L 633.593125 274.479348 
L 649.9115 274.055038 
L 666.229875 276.437396 
L 682.54825 282.972595 
L 698.866625 292.813989 
L 715.185 299.407033 
" clip-path="url(#pce9a54358c)" style="fill: none; stroke: #1f77b4; stroke-width: 2.5; stroke-linecap: round"/>
   </g>
   <g id="line2d_69">
    <path d="M 62.45 317.615613 
L 715.185 317.615613 
" clip-path="url(#pce9a54358c)" style="fill: none; stroke: #ff7f0e; stroke-width: 2.5; stroke-linecap: round"/>
   </g>
   <g id="line2d_70">
    <path clip-path="url(#pce9a54358c)" style="fill: none; stroke: #d62728; stroke-width: 2.5; stroke-linecap: round"/>
   </g>
   <g id="line2d_71">
    <path clip-path="url(#pce9a54358c)" style="fill: none; stroke: #2ca02c; stroke-width: 2.5; stroke-linecap: round"/>
   </g>
   <g id="line2d_72">
    <g>
     <use xlink:href="#m18cc055d43" x="62.45" y="194.13" style="stroke: #000000"/>
     <use xlink:href="#m18cc055d43" x="715.185" y="194.13" style="stroke: #000000"/>
    </g>
   </g>
   <g id="patch_11">
    <path d="M 62.45 365.46 
L 62.45 194.13 
" style="fill: none; stroke: #cccccc; stroke-linejoin: miter; stroke-linecap: square"/>
   </g>
   <g id="patch_12">
    <path d="M 715.185 365.46 
L 715.185 194.13 
" style="fill: none; stroke: #cccccc; stroke-linejoin: miter; stroke-linecap: square"/>
   </g>
   <g id="patch_13">
    <path d="M 62.45 365.46 
L 715.185 365.46 
" style="fill: none; stroke: #cccccc; stroke-linejoin: miter; stroke-linecap: square"/>
   </g>
  </g>
  <g id="text_21">
   <!-- Accumulated cost -->
   <g style="fill: #262626" transform="translate(18.117188 303.852344) rotate(-90) scale(0.25 -0.25)">
    <defs>
     <path id="LiberationSans-75" d="M 981 3381 
L 981 1238 
Q 981 991 1017 825 
Q 1053 659 1134 557 
Q 1216 456 1348 414 
Q 1481 372 1678 372 
Q 1878 372 2039 442 
Q 2200 513 2314 645 
Q 2428 778 2490 973 
Q 2553 1169 2553 1422 
L 2553 3381 
L 3116 3381 
L 3116 722 
Q 3116 616 3117 498 
Q 3119 381 3122 276 
Q 3125 172 3128 97 
Q 3131 22 3134 0 
L 2603 0 
Q 2600 16 2597 84 
Q 2594 153 2589 242 
Q 2584 331 2581 423 
Q 2578 516 2578 578 
L 2569 578 
Q 2488 431 2391 312 
Q 2294 194 2166 111 
Q 2038 28 1872 -17 
Q 1706 -63 1488 -63 
Q 1206 -63 1003 6 
Q 800 75 669 219 
Q 538 363 477 588 
Q 416 813 416 1128 
L 416 3381 
L 981 3381 
z
" transform="scale(0.015625)"/>
     <path id="LiberationSans-74" d="M 1731 25 
Q 1603 -9 1470 -29 
Q 1338 -50 1163 -50 
Q 488 -50 488 716 
L 488 2972 
L 97 2972 
L 97 3381 
L 509 3381 
L 675 4138 
L 1050 4138 
L 1050 3381 
L 1675 3381 
L 1675 2972 
L 1050 2972 
L 1050 838 
Q 1050 594 1129 495 
Q 1209 397 1406 397 
Q 1488 397 1564 409 
Q 1641 422 1731 441 
L 1731 25 
z
" transform="scale(0.015625)"/>
     <path id="LiberationSans-65" d="M 863 1572 
Q 863 1306 917 1082 
Q 972 859 1086 698 
Q 1200 538 1378 448 
Q 1556 359 1806 359 
Q 2172 359 2392 506 
Q 2613 653 2691 878 
L 3184 738 
Q 3131 597 3036 455 
Q 2941 313 2781 198 
Q 2622 84 2383 10 
Q 2144 -63 1806 -63 
Q 1056 -63 664 384 
Q 272 831 272 1713 
Q 272 2188 390 2517 
Q 509 2847 715 3053 
Q 922 3259 1197 3351 
Q 1472 3444 1784 3444 
Q 2209 3444 2495 3306 
Q 2781 3169 2954 2926 
Q 3128 2684 3201 2356 
Q 3275 2028 3275 1647 
L 3275 1572 
L 863 1572 
z
M 2694 2003 
Q 2647 2538 2422 2783 
Q 2197 3028 1775 3028 
Q 1634 3028 1479 2983 
Q 1325 2938 1194 2822 
Q 1063 2706 972 2507 
Q 881 2309 869 2003 
L 2694 2003 
z
" transform="scale(0.015625)"/>
     <path id="LiberationSans-64" d="M 2566 544 
Q 2409 219 2151 78 
Q 1894 -63 1513 -63 
Q 872 -63 570 368 
Q 269 800 269 1675 
Q 269 3444 1513 3444 
Q 1897 3444 2153 3303 
Q 2409 3163 2566 2856 
L 2572 2856 
Q 2572 2888 2570 2955 
Q 2569 3022 2567 3095 
Q 2566 3169 2566 3234 
Q 2566 3300 2566 3328 
L 2566 4638 
L 3128 4638 
L 3128 697 
Q 3128 575 3129 462 
Q 3131 350 3134 256 
Q 3138 163 3141 95 
Q 3144 28 3147 0 
L 2609 0 
Q 2603 31 2598 89 
Q 2594 147 2589 222 
Q 2584 297 2581 380 
Q 2578 463 2578 544 
L 2566 544 
z
M 859 1694 
Q 859 1344 903 1094 
Q 947 844 1044 683 
Q 1141 522 1291 447 
Q 1441 372 1656 372 
Q 1878 372 2048 444 
Q 2219 516 2333 677 
Q 2447 838 2506 1097 
Q 2566 1356 2566 1731 
Q 2566 2091 2506 2339 
Q 2447 2588 2331 2741 
Q 2216 2894 2048 2961 
Q 1881 3028 1663 3028 
Q 1456 3028 1306 2956 
Q 1156 2884 1056 2725 
Q 956 2566 907 2311 
Q 859 2056 859 1694 
z
" transform="scale(0.015625)"/>
     <path id="LiberationSans-20" transform="scale(0.015625)"/>
    </defs>
    <use xlink:href="#LiberationSans-41"/>
    <use xlink:href="#LiberationSans-63" x="66.699219"/>
    <use xlink:href="#LiberationSans-63" x="116.699219"/>
    <use xlink:href="#LiberationSans-75" x="166.699219"/>
    <use xlink:href="#LiberationSans-6d" x="222.314453"/>
    <use xlink:href="#LiberationSans-75" x="305.615234"/>
    <use xlink:href="#LiberationSans-6c" x="361.230469"/>
    <use xlink:href="#LiberationSans-61" x="383.447266"/>
    <use xlink:href="#LiberationSans-74" x="439.0625"/>
    <use xlink:href="#LiberationSans-65" x="466.845703"/>
    <use xlink:href="#LiberationSans-64" x="522.460938"/>
    <use xlink:href="#LiberationSans-20" x="578.076172"/>
    <use xlink:href="#LiberationSans-63" x="605.859375"/>
    <use xlink:href="#LiberationSans-6f" x="655.859375"/>
    <use xlink:href="#LiberationSans-73" x="711.474609"/>
    <use xlink:href="#LiberationSans-74" x="761.474609"/>
   </g>
  </g>
 </g>
 <defs>
  <clipPath id="pcc5b8b15fa">
   <rect x="62.45" y="0" width="652.735" height="171.33"/>
  </clipPath>
  <clipPath id="pce9a54358c">
   <rect x="62.45" y="194.13" width="652.735" height="171.33"/>
  </clipPath>
 </defs>
</svg>
